<svg xmlns="http://www.w3.org/2000/svg" width="1440" height="555" fill="none"><g filter="url(#a)"><path fill="url(#b)" d="M1286.14 266.521h32.88c5.13 0 9.29-4.157 9.29-9.285v-2.954c0-5.127-4.16-9.284-9.29-9.284h-32.88c-2.47 0-4.83.978-6.57 2.72l-38.9 38.872a9.28 9.28 0 0 1-6.57 2.719H205.258a9.29 9.29 0 0 1-6.568-2.719l-39.314-39.294a9.289 9.289 0 0 0-6.568-2.72h-31.619c-5.13 0-9.289 4.157-9.289 9.284v2.954c0 5.128 4.159 9.285 9.289 9.285h31.619c2.463 0 4.826.978 6.568 2.719l39.314 39.294a9.287 9.287 0 0 0 6.568 2.72H1234.1c2.47 0 4.83-.978 6.57-2.72l38.9-38.872a9.28 9.28 0 0 1 6.57-2.719Z"/></g><defs><linearGradient id="b" x1="244.054" x2="1172.51" y1="338.263" y2="362.763" gradientUnits="userSpaceOnUse"><stop stop-opacity="0"/><stop offset=".207" stop-color="#fff"/><stop offset=".77" stop-color="#fff"/><stop offset="1" stop-opacity="0"/></linearGradient><filter id="a" width="1704.41" height="554.256" x="-132.1" y=".576" color-interpolation-filters="sRGB" filterUnits="userSpaceOnUse"><feFlood flood-opacity="0" result="BackgroundImageFix"/><feBlend in="SourceGraphic" in2="BackgroundImageFix" result="shape"/><feGaussianBlur result="effect1_foregroundBlur_650_7849" stdDeviation="122"/></filter></defs></svg>