<svg xmlns="http://www.w3.org/2000/svg" width="607" height="513" fill="none"><rect width="586.766" height="472.603" x="10.117" y="20.119" stroke="url(#a)" rx="19.5"/><g clip-path="url(#b)"><rect width="567" height="443" x="20" y="31.463" fill="#0C0C0D" rx="12"/><mask id="c" fill="#fff"><path d="M20 31.463h567v55H20v-55Z"/></mask><path fill="#141415" d="M20 31.463h567v55H20v-55Z"/><path fill="#1D1E21" d="M587 85.463H20v2h567v-2Z" mask="url(#c)"/><path fill="#fff" fill-rule="evenodd" d="m54.876 61.465-.001 3.342c0 .88-.714 1.593-1.594 1.593H43.72c-.88 0-1.594-.713-1.594-1.593v-3.342c.252.075.516.124.788.144l.275.01h3.187c.587 0 1.062.476 1.063 1.063 0 .26.187.477.435.522l.096.009h1.062a.532.532 0 0 0 .523-.436l.008-.095c0-.587.476-1.063 1.063-1.063h3.188c.369 0 .726-.054 1.063-.154Zm-5.048-9.94a1.86 1.86 0 0 1 1.86 1.86v1.328h3.187c.587 0 1.063.476 1.063 1.062V57.9a2.125 2.125 0 0 1-2.126 2.125H43.188a2.125 2.125 0 0 1-2.126-2.125v-2.125c0-.586.476-1.062 1.063-1.062h3.188v-1.328a1.86 1.86 0 0 1 1.859-1.86h2.656Zm0 1.594h-2.656a.266.266 0 0 0-.266.266v1.328h3.188v-1.328a.266.266 0 0 0-.266-.266Z" clip-rule="evenodd"/><path fill="#fff" d="M63.791 64.463V53.55h4.094c.84 0 1.543.156 2.11.469a3.141 3.141 0 0 1 1.296 1.289c.293.547.44 1.167.44 1.86 0 .698-.15 1.32-.447 1.868a3.14 3.14 0 0 1-1.304 1.281c-.576.308-1.284.462-2.124.462h-2.71v-1.626h2.439c.493 0 .896-.083 1.209-.25.317-.17.549-.404.695-.702a2.28 2.28 0 0 0 .227-1.033c0-.39-.075-.733-.227-1.025a1.51 1.51 0 0 0-.696-.689c-.312-.166-.717-.249-1.215-.249h-1.81v9.258h-1.977Zm9.016 0v-8.189h1.868v1.377h.088c.146-.478.402-.844.769-1.098a2.117 2.117 0 0 1 1.252-.388 4.793 4.793 0 0 1 .689.05v1.773a1.896 1.896 0 0 0-.388-.073 4.59 4.59 0 0 0-.506-.03 1.96 1.96 0 0 0-.952.228 1.72 1.72 0 0 0-.66.622 1.775 1.775 0 0 0-.234.923v4.805h-1.926Zm8.62.161c-.8 0-1.493-.176-2.08-.527a3.566 3.566 0 0 1-1.362-1.48c-.317-.635-.476-1.372-.476-2.212 0-.845.159-1.584.476-2.219a3.556 3.556 0 0 1 1.363-1.487c.586-.351 1.279-.527 2.08-.527.8 0 1.494.176 2.08.527.586.352 1.04.847 1.362 1.487.322.635.483 1.374.483 2.22 0 .84-.16 1.576-.483 2.211a3.566 3.566 0 0 1-1.362 1.48c-.586.351-1.28.527-2.08.527Zm0-1.553c.445 0 .811-.117 1.1-.351a2.14 2.14 0 0 0 .644-.967 3.94 3.94 0 0 0 .22-1.348c0-.503-.074-.957-.22-1.362-.142-.405-.357-.725-.645-.96-.288-.239-.654-.358-1.098-.358-.435 0-.799.12-1.092.358-.293.235-.512.555-.659.96-.141.405-.212.86-.212 1.362 0 .493.07.943.212 1.348.147.405.366.727.66.967.292.234.656.351 1.09.351Zm4.988-6.797h1.927v8.658c.005.59-.105 1.076-.33 1.457-.224.386-.55.672-.974.857-.425.186-.94.278-1.545.278h-.388v-1.567h.278c.37 0 .635-.09.79-.271.162-.176.242-.435.242-.776v-8.636Zm.96-1.15c-.308 0-.571-.102-.791-.307a.976.976 0 0 1-.33-.74c0-.293.11-.542.33-.747.22-.205.483-.307.791-.307.303 0 .564.102.784.307.22.205.33.452.33.74 0 .293-.11.542-.33.747a1.11 1.11 0 0 1-.784.307Zm6.02 9.5c-.82 0-1.528-.17-2.123-.513a3.5 3.5 0 0 1-1.378-1.465c-.317-.63-.476-1.372-.476-2.226 0-.845.16-1.585.476-2.22a3.59 3.59 0 0 1 1.34-1.494c.577-.356 1.256-.534 2.037-.534.503 0 .979.08 1.428.242.454.16.855.41 1.201.747.352.337.628.766.828 1.289.2.517.3 1.135.3 1.853v.6H90.32v-1.296h5.75l-.901.38c0-.463-.07-.866-.212-1.208a1.792 1.792 0 0 0-.63-.813c-.279-.195-.625-.293-1.04-.293-.415 0-.77.098-1.062.293a1.853 1.853 0 0 0-.667.791 2.587 2.587 0 0 0-.227 1.099v.9c0 .499.085.926.256 1.283.176.351.42.62.733.805a2.15 2.15 0 0 0 1.106.279c.273 0 .522-.04.747-.118.23-.078.425-.195.586-.351.166-.161.293-.36.38-.594l1.802.213a2.885 2.885 0 0 1-.651 1.245 3.123 3.123 0 0 1-1.209.82c-.488.19-1.05.286-1.684.286Zm8.248 0c-.816 0-1.517-.178-2.103-.535a3.567 3.567 0 0 1-1.347-1.494c-.313-.635-.469-1.364-.469-2.19 0-.835.159-1.57.476-2.204a3.566 3.566 0 0 1 1.355-1.487c.586-.361 1.277-.542 2.073-.542.669 0 1.26.122 1.772.366a3.017 3.017 0 0 1 1.751 2.578h-1.846a1.872 1.872 0 0 0-.285-.71 1.53 1.53 0 0 0-.557-.498 1.665 1.665 0 0 0-.806-.183c-.395 0-.742.107-1.04.322-.293.21-.522.513-.688.908-.166.396-.25.87-.25 1.421 0 .557.081 1.038.242 1.443.162.4.391.71.689.93.298.215.647.322 1.047.322.425 0 .784-.124 1.077-.373.298-.25.488-.593.571-1.033h1.846a3.135 3.135 0 0 1-.513 1.538c-.298.444-.7.794-1.208 1.047-.508.25-1.104.374-1.787.374Zm8.628-8.35v1.495h-4.695v-1.495h4.695Zm-3.545-1.948h1.926v7.676c0 .322.071.561.212.718.142.151.366.227.674.227.083 0 .176-.008.278-.022.103-.015.196-.032.279-.051l.329 1.508a3.96 3.96 0 0 1-.622.14c-.21.034-.42.05-.63.05-.762 0-1.36-.2-1.795-.6-.434-.405-.651-.957-.651-1.655v-7.99Zm7.375.88V53.55h8.701v1.655h-3.369v9.258h-1.955v-9.258h-3.377Zm9.727 9.257v-8.189h1.926v8.189h-1.926Zm.966-9.338a1.12 1.12 0 0 1-.791-.308.978.978 0 0 1-.329-.74c0-.293.11-.542.329-.747a1.12 1.12 0 0 1 .791-.307c.303 0 .564.102.784.307.22.205.33.452.33.74 0 .293-.11.542-.33.747a1.11 1.11 0 0 1-.784.307Zm2.388 9.338v-8.189h1.839v1.4h.102c.171-.47.454-.836.85-1.1.395-.268.864-.402 1.406-.402.557 0 1.025.134 1.406.403a2.1 2.1 0 0 1 .798 1.098h.088a2.31 2.31 0 0 1 .923-1.091c.43-.273.943-.41 1.538-.41.752 0 1.365.24 1.839.718.478.473.717 1.167.717 2.08v5.493h-1.933v-5.2c0-.503-.137-.872-.41-1.106a1.434 1.434 0 0 0-.989-.36c-.464 0-.825.147-1.084.44-.259.288-.388.66-.388 1.114v5.112h-1.905V59.19c0-.425-.124-.762-.373-1.011-.249-.254-.579-.381-.989-.381-.278 0-.532.07-.762.212a1.54 1.54 0 0 0-.549.593 1.879 1.879 0 0 0-.198.88v4.98h-1.926Zm16.56.161c-.82 0-1.528-.17-2.124-.513a3.496 3.496 0 0 1-1.377-1.465c-.317-.63-.476-1.372-.476-2.226 0-.845.159-1.585.476-2.22a3.59 3.59 0 0 1 1.341-1.494c.576-.356 1.254-.534 2.036-.534.503 0 .979.08 1.428.242.454.16.854.41 1.201.747.352.337.628.766.828 1.289.2.517.3 1.135.3 1.853v.6h-6.709v-1.296h5.75l-.901.38c0-.463-.071-.866-.213-1.208a1.784 1.784 0 0 0-.63-.813c-.278-.195-.625-.293-1.04-.293-.415 0-.769.098-1.062.293a1.849 1.849 0 0 0-.666.791 2.577 2.577 0 0 0-.227 1.099v.9c0 .499.085.926.256 1.283.176.351.42.62.733.805.317.186.686.279 1.105.279.274 0 .523-.04.748-.118.229-.078.424-.195.585-.351.167-.161.293-.36.381-.594l1.802.213a2.877 2.877 0 0 1-.652 1.245 3.118 3.118 0 0 1-1.208.82c-.489.19-1.05.286-1.685.286Zm6.607-11.074v10.913h-1.927V53.55h1.927Zm1.428 10.913v-8.189h1.926v8.189h-1.926Zm.967-9.338c-.308 0-.572-.103-.791-.308a.976.976 0 0 1-.33-.74c0-.293.11-.542.33-.747.219-.205.483-.307.791-.307.302 0 .564.102.783.307.22.205.33.452.33.74 0 .293-.11.542-.33.747a1.108 1.108 0 0 1-.783.307Zm4.314 4.548v4.79h-1.927v-8.189h1.89v1.4h.095a2.35 2.35 0 0 1 .872-1.092c.4-.273.908-.41 1.523-.41.567 0 1.06.12 1.48.359.42.239.744.59.974 1.054.234.46.351 1.016.351 1.67v5.208h-1.926v-4.907c0-.547-.141-.974-.425-1.282-.283-.313-.673-.469-1.172-.469a1.82 1.82 0 0 0-.9.22 1.585 1.585 0 0 0-.616.637c-.146.273-.219.61-.219 1.01Zm10.312 4.951c-.82 0-1.528-.17-2.124-.513a3.496 3.496 0 0 1-1.377-1.465c-.317-.63-.476-1.372-.476-2.226 0-.845.159-1.585.476-2.22a3.594 3.594 0 0 1 1.34-1.494c.577-.356 1.255-.534 2.037-.534.503 0 .979.08 1.428.242.454.16.854.41 1.201.747.352.337.627.766.828 1.289.2.517.3 1.135.3 1.853v.6h-6.709v-1.296h5.749l-.9.38c0-.463-.071-.866-.213-1.208a1.784 1.784 0 0 0-.63-.813c-.278-.195-.625-.293-1.04-.293-.415 0-.769.098-1.062.293a1.849 1.849 0 0 0-.666.791 2.577 2.577 0 0 0-.227 1.099v.9c0 .499.085.926.256 1.283.176.351.42.62.732.805.318.186.686.279 1.106.279.274 0 .523-.04.747-.118.23-.078.425-.195.586-.351.166-.161.293-.36.381-.594l1.802.213a2.877 2.877 0 0 1-.652 1.245 3.118 3.118 0 0 1-1.208.82c-.489.19-1.05.286-1.685.286Z"/><g filter="url(#d)"><path fill="#5F646D" d="M508.632 64.276h4.25a2.126 2.126 0 0 1-4.244.16l-.006-.16Zm2.125-12.749a4.25 4.25 0 0 1 4.25 4.25v3.219l1.789 1.676a1.067 1.067 0 0 1 .336.776v.703a1.06 1.06 0 0 1-1.063 1.063h-10.624a1.06 1.06 0 0 1-1.062-1.063v-.703a1.059 1.059 0 0 1 .336-.776l1.789-1.676v-3.22a4.249 4.249 0 0 1 4.249-4.249Z"/></g><path fill="#2A2D32" d="M532.755 52.965h.75v11.998h-.75z"/><g fill="#5F646D" filter="url(#e)"><path fill-rule="evenodd" d="M551.518 52.59a3.453 3.453 0 0 0-3.453 3.453v5.843a3.453 3.453 0 0 0 3.453 3.452h7.968a3.453 3.453 0 0 0 3.453-3.452v-5.843a3.453 3.453 0 0 0-3.453-3.453h-7.968Zm-1.859 9.03c0 1.174.951 2.125 2.125 2.125h7.702a1.859 1.859 0 0 0 1.859-1.86v-5.842a1.86 1.86 0 0 0-1.859-1.86h-7.702a2.125 2.125 0 0 0-2.125 2.125v5.312Z" clip-rule="evenodd"/><path d="M558.158 53.652h-1.594v10.624h1.594V53.652Z"/></g><path fill="#ADB1B8" d="M55.686 131.59a3.51 3.51 0 0 1-1.447-.286 2.38 2.38 0 0 1-1.015-.85c-.25-.373-.375-.826-.375-1.359v-.184h1.416v.184c0 .258.059.485.177.679.123.195.29.345.502.451.215.102.463.152.742.152.3 0 .557-.063.768-.19.212-.127.373-.313.483-.559.11-.249.165-.554.165-.914v-6.709h1.415v6.709c0 .605-.116 1.124-.349 1.556a2.354 2.354 0 0 1-.977.983c-.423.225-.925.337-1.505.337Zm5.161-.127H59.33l3.402-9.458h1.65l3.397 9.458h-1.511l-2.679-7.738h-.076l-2.666 7.738Zm.254-3.701h4.907v1.194H61.1v-1.194Zm15.133-5.757v9.458H74.9l-4.793-6.932h-.095v6.932h-1.428v-9.458h1.32l4.812 6.944h.088v-6.944h1.429Z"/><path fill="url(#f)" d="m65.333 161.463 2.387-5h-5.774l2.387 5h1Zm-1-.5v283.5h1v-283.5h-1Z"/><path fill="#ADB1B8" d="M114.103 131.463v-9.458h5.871v1.225h-4.443v3.066h4.018v1.219h-4.018v3.948h-1.428Zm7.071 0v-9.458h5.935v1.225h-4.507v2.85h4.19v1.219h-4.19v2.939h4.552v1.225h-5.98Zm7.287 0v-9.458h3.472c.669 0 1.223.11 1.664.33.44.22.768.518.983.895.22.372.33.791.33 1.257 0 .393-.074.726-.222.996a1.75 1.75 0 0 1-.577.648 2.624 2.624 0 0 1-.8.355v.089c.317.017.626.119.927.305.3.186.548.451.742.793.199.339.299.754.299 1.244 0 .483-.115.917-.343 1.302-.224.381-.571.683-1.041.907-.47.225-1.073.337-1.809.337h-3.625Zm1.428-1.219h2.057c.686 0 1.177-.133 1.473-.4.296-.266.444-.599.444-.996a1.593 1.593 0 0 0-.87-1.416c-.279-.148-.609-.222-.99-.222h-2.114v3.034Zm0-4.145h1.917c.318 0 .606-.061.864-.184a1.47 1.47 0 0 0 .609-.52c.152-.229.229-.493.229-.794 0-.389-.138-.715-.413-.977-.271-.267-.688-.4-1.25-.4h-1.956v2.875Z"/><path fill="url(#g)" d="m125 161.463 2.387-5h-5.774l2.387 5h1Zm-1-.5v283.5h1v-283.5h-1Z"/><path fill="#ADB1B8" d="M171.154 122.005h1.739l3.009 7.35h.108l3.015-7.35h1.764v9.458h-1.396v-6.843h-.089l-2.799 6.83h-1.13l-2.768-6.836h-.089v6.849h-1.364v-9.458Zm11.965 9.458h-1.517l3.402-9.458h1.651l3.396 9.458h-1.511l-2.679-7.738h-.076l-2.666 7.738Zm.254-3.701h4.907v1.194h-4.907v-1.194Zm7.484 3.701v-9.458h3.377c.732 0 1.339.127 1.822.381.482.249.844.599 1.085 1.047.241.444.362.959.362 1.543 0 .575-.121 1.083-.362 1.523-.241.44-.605.781-1.092 1.022-.482.241-1.092.362-1.828.362h-2.545v-1.219h2.412c.469 0 .848-.068 1.136-.203.292-.135.504-.328.635-.578.135-.249.203-.552.203-.907 0-.36-.068-.669-.203-.927a1.345 1.345 0 0 0-.641-.603c-.288-.144-.667-.216-1.137-.216h-1.796v8.233h-1.428Zm5.383 0-2.292-4.272h1.581l2.336 4.272h-1.625Z"/><path fill="url(#h)" d="m184.666 161.463 2.387-5h-5.774l2.387 5h1Zm-1-.5v283.5h1v-283.5h-1Z"/><path fill="#ADB1B8" d="M233.328 131.463h-1.517l3.402-9.458h1.651l3.396 9.458h-1.511l-2.679-7.738h-.076l-2.666 7.738Zm.254-3.701h4.907v1.194h-4.907v-1.194Zm7.484 3.701v-9.458h3.377c.732 0 1.339.135 1.821.406.483.267.845.633 1.086 1.098.241.462.362.982.362 1.562a3.36 3.36 0 0 1-.362 1.568 2.649 2.649 0 0 1-1.092 1.098c-.482.266-1.092.4-1.828.4h-2.311v-1.206h2.178c.469 0 .848-.081 1.136-.242.292-.16.504-.38.635-.66a2.2 2.2 0 0 0 .203-.958c0-.36-.068-.677-.203-.952a1.41 1.41 0 0 0-.635-.654c-.292-.157-.673-.235-1.143-.235h-1.796v8.233h-1.428Zm7.757 0v-9.458h3.377c.732 0 1.339.127 1.821.381.483.249.845.599 1.086 1.047.241.444.362.959.362 1.543 0 .575-.121 1.083-.362 1.523-.241.44-.605.781-1.092 1.022-.482.241-1.092.362-1.828.362h-2.546v-1.219h2.413c.469 0 .848-.068 1.136-.203a1.31 1.31 0 0 0 .635-.578c.135-.249.203-.552.203-.907 0-.36-.068-.669-.203-.927a1.348 1.348 0 0 0-.642-.603c-.287-.144-.666-.216-1.136-.216h-1.796v8.233h-1.428Zm5.382 0-2.291-4.272h1.58l2.336 4.272h-1.625Z"/><path fill="url(#i)" d="m244.333 161.463 2.387-5h-5.774l2.387 5h1Zm-1-.5v283.5h1v-283.5h-1Z"/><path fill="#ADB1B8" d="M290.716 122.005h1.739l3.009 7.35h.108l3.015-7.35h1.765v9.458h-1.397v-6.843h-.088l-2.8 6.83h-1.13l-2.767-6.836h-.089v6.849h-1.365v-9.458Zm11.965 9.458h-1.517l3.403-9.458h1.65l3.396 9.458h-1.511l-2.678-7.738h-.077l-2.666 7.738Zm.254-3.701h4.907v1.194h-4.907v-1.194Zm5.789-5.757h1.619l2.476 4.304h.101l2.463-4.304h1.631l-3.434 5.745v3.713h-1.428v-3.713l-3.428-5.745Z"/><path fill="url(#j)" d="m304 161.463 2.387-5h-5.774l2.387 5h1Zm-1-.5v283.5h1v-283.5h-1Z"/><path fill="#ADB1B8" d="M353.772 131.59c-.538 0-1.02-.095-1.447-.286a2.38 2.38 0 0 1-1.016-.85c-.25-.373-.375-.826-.375-1.359v-.184h1.416v.184c0 .258.059.485.178.679.122.195.29.345.501.451.216.102.464.152.743.152.3 0 .556-.063.768-.19.211-.127.372-.313.482-.559.11-.249.165-.554.165-.914v-6.709h1.416v6.709c0 .605-.117 1.124-.349 1.556a2.359 2.359 0 0 1-.978.983c-.423.225-.924.337-1.504.337Zm10.442-9.585h1.428v6.221c0 .66-.157 1.246-.47 1.758a3.239 3.239 0 0 1-1.307 1.2c-.563.287-1.223.431-1.981.431-.753 0-1.413-.144-1.98-.431a3.278 3.278 0 0 1-1.314-1.2c-.309-.512-.464-1.098-.464-1.758v-6.221h1.429v6.106c0 .428.093.809.279 1.143.19.33.459.59.806.781.351.19.766.285 1.244.285.483 0 .897-.095 1.244-.285.347-.191.614-.451.8-.781.19-.334.286-.715.286-1.143v-6.106Zm10.6 0v9.458h-1.333l-4.792-6.932h-.095v6.932h-1.429v-9.458h1.321l4.811 6.944h.089v-6.944h1.428Z"/><path fill="url(#k)" d="m363.666 161.463 2.387-5h-5.774l2.387 5h1Zm-1-.5v283.5h1v-283.5h-1Z"/><path fill="#ADB1B8" d="M414.632 131.59a3.51 3.51 0 0 1-1.447-.286 2.38 2.38 0 0 1-1.016-.85c-.249-.373-.374-.826-.374-1.359v-.184h1.415v.184c0 .258.06.485.178.679.123.195.29.345.501.451.216.102.464.152.743.152.301 0 .557-.063.768-.19.212-.127.373-.313.483-.559.11-.249.165-.554.165-.914v-6.709h1.415v6.709c0 .605-.116 1.124-.349 1.556a2.35 2.35 0 0 1-.977.983c-.424.225-.925.337-1.505.337Zm10.442-9.585h1.428v6.221c0 .66-.156 1.246-.469 1.758a3.235 3.235 0 0 1-1.308 1.2c-.563.287-1.223.431-1.981.431-.753 0-1.413-.144-1.98-.431a3.278 3.278 0 0 1-1.314-1.2c-.309-.512-.463-1.098-.463-1.758v-6.221h1.428v6.106c0 .428.093.809.279 1.143.191.33.459.59.806.781.352.19.766.285 1.244.285.483 0 .898-.095 1.245-.285.347-.191.613-.451.799-.781a2.26 2.26 0 0 0 .286-1.143v-6.106Zm2.952 9.458v-9.458h1.428v8.233h4.285v1.225h-5.713Z"/><path fill="url(#l)" d="m423.333 161.463 2.387-5h-5.774l2.387 5h1Zm-1-.5v283.5h1v-283.5h-1Z"/><path fill="#ADB1B8" d="M470.681 131.463h-1.517l3.402-9.458h1.651l3.396 9.458h-1.511l-2.679-7.738h-.076l-2.666 7.738Zm.254-3.701h4.907v1.194h-4.907v-1.194Zm13.571-5.757h1.428v6.221c0 .66-.156 1.246-.469 1.758a3.235 3.235 0 0 1-1.308 1.2c-.563.287-1.223.431-1.98.431-.754 0-1.414-.144-1.981-.431a3.278 3.278 0 0 1-1.314-1.2c-.309-.512-.463-1.098-.463-1.758v-6.221h1.428v6.106c0 .428.093.809.279 1.143.191.33.459.59.806.781.352.19.766.285 1.245.285.482 0 .897-.095 1.244-.285.347-.191.613-.451.8-.781a2.27 2.27 0 0 0 .285-1.143v-6.106Zm6.951 9.585c-.855 0-1.606-.197-2.254-.59-.643-.394-1.146-.953-1.51-1.676-.36-.728-.54-1.589-.54-2.584 0-1.007.182-1.872.546-2.596.368-.728.872-1.286 1.511-1.676.639-.393 1.367-.59 2.183-.59.508 0 .982.076 1.422.228a3.707 3.707 0 0 1 2.038 1.632c.228.376.383.795.463 1.257h-1.46a2.897 2.897 0 0 0-.355-.756 2.306 2.306 0 0 0-1.238-.933 2.779 2.779 0 0 0-.863-.127c-.533 0-1.014.138-1.441.413-.428.271-.766.671-1.016 1.2-.249.528-.374 1.176-.374 1.942s.125 1.413.374 1.942c.25.529.593.931 1.029 1.206.435.271.931.407 1.485.407.512 0 .958-.104 1.339-.311a2.25 2.25 0 0 0 .889-.889c.211-.381.317-.832.317-1.352l.375.07h-2.704v-1.181h3.719v1.079c0 .796-.169 1.483-.507 2.063-.335.58-.8 1.028-1.397 1.346-.592.317-1.269.476-2.031.476Z"/><path fill="url(#m)" d="m483 161.463 2.387-5h-5.774l2.387 5h1Zm-1-.5v283.5h1v-283.5h-1Z"/><path fill="#ADB1B8" d="M534.663 131.615c-.706 0-1.32-.11-1.84-.33-.517-.224-.921-.544-1.213-.958-.292-.415-.455-.908-.489-1.479h1.435c.03.342.14.628.33.857.195.224.447.391.755.501.309.11.648.165 1.016.165.402 0 .762-.063 1.079-.19.318-.127.565-.305.743-.534.182-.232.273-.503.273-.812 0-.279-.081-.508-.241-.686a1.76 1.76 0 0 0-.642-.438 6.252 6.252 0 0 0-.914-.311l-1.11-.304c-.762-.203-1.363-.506-1.803-.908-.44-.406-.66-.937-.66-1.593 0-.546.146-1.022.438-1.428a2.91 2.91 0 0 1 1.199-.946c.508-.229 1.077-.343 1.708-.343.643 0 1.208.114 1.695.343.491.224.878.533 1.161.926.288.39.438.836.451 1.34h-1.384a1.363 1.363 0 0 0-.609-1.016c-.351-.241-.8-.362-1.346-.362-.381 0-.715.062-1.003.184a1.54 1.54 0 0 0-.66.496 1.216 1.216 0 0 0-.228.73c0 .296.091.537.272.723.187.186.411.334.673.445.267.105.523.192.768.26l.921.247c.3.077.609.178.927.305.317.127.611.294.882.501.275.204.495.458.66.762.169.301.254.665.254 1.092 0 .529-.138 1.003-.413 1.422-.275.415-.672.743-1.193.984-.52.237-1.151.355-1.892.355Zm4.653-.152v-9.458h5.935v1.225h-4.507v2.85h4.19v1.219h-4.19v2.939h4.552v1.225h-5.98Zm7.287 0v-9.458h3.377c.732 0 1.34.135 1.822.406.483.267.844.633 1.086 1.098.241.462.361.982.361 1.562 0 .58-.12 1.102-.361 1.568a2.66 2.66 0 0 1-1.092 1.098c-.483.266-1.092.4-1.828.4h-2.311v-1.206h2.177c.47 0 .849-.081 1.137-.242.292-.16.503-.38.634-.66.136-.283.203-.603.203-.958 0-.36-.067-.677-.203-.952a1.407 1.407 0 0 0-.634-.654c-.292-.157-.673-.235-1.143-.235h-1.796v8.233h-1.429Z"/><path fill="url(#n)" d="m542.666 161.463 2.387-5h-5.774l2.387 5h1Zm-1-.5v283.5h1v-283.5h-1Z"/><g filter="url(#o)"><mask id="p" fill="#fff"><path d="M62 179.418a9.135 9.135 0 0 1 9.135-9.135h167.73a9.135 9.135 0 0 1 9.135 9.135v39.09a9.135 9.135 0 0 1-9.135 9.134H71.135A9.135 9.135 0 0 1 62 218.508v-39.09Z"/></mask><path fill="#141415" d="M62 179.418a9.135 9.135 0 0 1 9.135-9.135h167.73a9.135 9.135 0 0 1 9.135 9.135v39.09a9.135 9.135 0 0 1-9.135 9.134H71.135A9.135 9.135 0 0 1 62 218.508v-39.09Z" shape-rendering="crispEdges"/><path fill="#1D1E21" d="M62 179.418c0-5.597 4.537-10.135 10.135-10.135h165.73c5.598 0 10.135 4.538 10.135 10.135 0-4.493-4.09-8.135-9.135-8.135H71.135c-5.045 0-9.135 3.642-9.135 8.135Zm186 48.224H62h186Zm-186 0v-57.359 57.359Zm186-57.359v57.359-57.359Z" mask="url(#p)"/><g filter="url(#q)"><g clip-path="url(#r)"><rect width="2.284" height="30.449" x="72.657" y="183.738" fill="#fff" fill-opacity=".1" rx="1.142"/><path fill="url(#s)" d="M72.657 183.738h2.284v30.449h-2.284z"/></g></g><path fill="#fff" d="M87.498 193.939h-2.107v-1.304h2.03c.575 0 1.057-.104 1.443-.312.39-.212.682-.53.876-.954.197-.423.295-.953.295-1.589 0-.635-.096-1.163-.29-1.583a1.977 1.977 0 0 0-.864-.942c-.383-.212-.857-.318-1.422-.318h-2.113v-1.305h2.203c.825 0 1.533.166 2.124.496a3.347 3.347 0 0 1 1.371 1.428c.32.62.48 1.362.48 2.224 0 .863-.16 1.606-.48 2.23a3.359 3.359 0 0 1-1.382 1.433c-.599.331-1.32.496-2.164.496Zm-1.315-8.307v8.307h-1.506v-8.307h1.506Zm9.032 8.43c-.625 0-1.164-.13-1.617-.39a2.668 2.668 0 0 1-1.048-1.115c-.242-.48-.363-1.045-.363-1.695 0-.643.121-1.206.363-1.689a2.737 2.737 0 0 1 1.02-1.138c.439-.271.955-.407 1.55-.407.383 0 .745.062 1.087.184.346.123.65.312.914.569.268.256.478.583.63.981.153.394.229.864.229 1.411v.457h-5.107v-.987h4.377l-.686.29c0-.353-.054-.66-.162-.92a1.366 1.366 0 0 0-.48-.619c-.211-.149-.475-.223-.79-.223-.317 0-.586.074-.81.223-.222.149-.392.35-.507.602a1.97 1.97 0 0 0-.173.837v.685c0 .379.066.705.196.976.133.268.32.472.557.613.242.142.522.212.842.212.208 0 .398-.03.569-.089a1.18 1.18 0 0 0 .446-.268c.126-.122.223-.273.29-.451l1.371.161c-.09.361-.254.677-.496.948a2.376 2.376 0 0 1-.92.625c-.372.145-.8.217-1.282.217Zm8.48-4.7-1.333.139a1.07 1.07 0 0 0-.362-.54c-.186-.16-.448-.24-.786-.24-.305 0-.562.067-.77.201-.204.133-.306.304-.306.513 0 .182.067.332.2.451.138.115.365.208.681.279l1.064.223c.584.123 1.021.323 1.311.602.29.279.435.639.435 1.082 0 .39-.114.736-.341 1.037-.226.301-.54.535-.942.702-.397.167-.857.251-1.377.251-.762 0-1.375-.16-1.84-.479a1.96 1.96 0 0 1-.83-1.344l1.432-.134c.064.279.201.491.413.636.216.141.491.212.825.212.35 0 .63-.071.842-.212.212-.145.318-.322.318-.53 0-.349-.279-.587-.837-.714l-1.064-.223c-.599-.13-1.041-.34-1.327-.63-.287-.293-.43-.667-.43-1.12 0-.387.106-.721.318-1.004.212-.282.507-.502.887-.658.379-.156.817-.234 1.315-.234.733 0 1.307.158 1.723.474.42.312.68.732.781 1.26Zm.925 4.577v-6.233h1.467v6.233h-1.467Zm.736-7.108a.851.851 0 0 1-.602-.234.744.744 0 0 1-.251-.563.75.75 0 0 1 .251-.569.851.851 0 0 1 .602-.234c.231 0 .429.078.597.234a.744.744 0 0 1 .251.563.75.75 0 0 1-.251.569.846.846 0 0 1-.597.234Zm4.516 9.573c-.791 0-1.414-.155-1.868-.463-.453-.305-.745-.675-.875-1.109l1.316-.324c.059.123.147.244.262.363.115.122.269.223.463.301.193.081.436.122.73.122.416 0 .76-.102 1.032-.306.275-.201.412-.53.412-.987v-1.177h-.084c-.07.149-.178.303-.323.463-.145.156-.336.29-.574.402-.234.107-.532.161-.892.161-.476 0-.909-.113-1.299-.34-.387-.227-.695-.565-.926-1.015-.227-.449-.34-1.012-.34-1.689 0-.684.113-1.262.34-1.734.231-.472.541-.831.931-1.076a2.406 2.406 0 0 1 1.305-.368c.364 0 .665.062.903.184.238.123.428.272.569.446.141.171.251.331.329.48h.078v-1.032h1.433v6.334c0 .531-.127.972-.379 1.321-.253.35-.601.61-1.043.781a4.045 4.045 0 0 1-1.5.262Zm.011-3.708c.469 0 .829-.167 1.082-.502.256-.338.385-.804.385-1.399 0-.394-.056-.738-.168-1.031a1.483 1.483 0 0 0-.496-.686 1.302 1.302 0 0 0-.803-.246c-.327 0-.6.086-.819.257-.22.171-.385.405-.496.702a2.9 2.9 0 0 0-.162 1.004c0 .379.056.712.167.998.112.286.277.509.496.669.223.156.495.234.814.234Zm5.459-2.403v3.646h-1.467v-6.233h1.439v1.065h.072c.141-.349.363-.626.664-.831.304-.208.691-.312 1.159-.312.431 0 .807.091 1.127.273.319.183.566.45.741.803.178.35.268.773.268 1.271v3.964h-1.467v-3.735c0-.416-.107-.742-.323-.976-.216-.238-.513-.357-.892-.357-.257 0-.485.056-.686.168a1.196 1.196 0 0 0-.468.485c-.112.208-.167.464-.167.769Zm9.968 3.769c-.565 0-1.053-.102-1.466-.307a2.284 2.284 0 0 1-.942-.83 2.21 2.21 0 0 1-.329-1.193c0-.331.069-.623.206-.876a2.71 2.71 0 0 1 .574-.708c.246-.219.523-.44.831-.663l1.478-1.004c.211-.148.373-.299.485-.451a.883.883 0 0 0 .172-.547c0-.178-.074-.347-.223-.507-.148-.16-.355-.24-.618-.24a.868.868 0 0 0-.887.87c0 .178.05.362.151.552.1.186.232.379.395.58.168.2.344.414.53.641l3.897 4.56h-1.594l-3.234-3.702a39.054 39.054 0 0 1-.697-.836 4.724 4.724 0 0 1-.546-.853 2.207 2.207 0 0 1-.212-.964c0-.394.091-.746.273-1.054.182-.309.435-.55.758-.725a2.354 2.354 0 0 1 1.143-.268c.439 0 .816.088 1.132.262a1.82 1.82 0 0 1 .981 1.623c0 .39-.098.74-.295 1.048a3.085 3.085 0 0 1-.809.842l-1.683 1.227c-.275.204-.472.408-.591.613-.116.201-.173.373-.173.518 0 .22.056.418.167.597.112.178.268.321.468.429.201.108.435.162.703.162.301 0 .595-.067.881-.201a2.6 2.6 0 0 0 .786-.58c.238-.249.427-.546.569-.892a3.07 3.07 0 0 0 .211-1.159h1.266c0 .524-.058.981-.173 1.371a3.428 3.428 0 0 1-.451.981c-.186.264-.38.476-.58.636l-.19.139a5.46 5.46 0 0 1-.184.134 2.81 2.81 0 0 1-1.031.591 3.81 3.81 0 0 1-1.149.184Zm9.958-.123h-2.108v-1.304h2.03c.576 0 1.057-.104 1.444-.312.39-.212.682-.53.875-.954.197-.423.296-.953.296-1.589 0-.635-.097-1.163-.29-1.583a1.982 1.982 0 0 0-.865-.942c-.382-.212-.856-.318-1.421-.318h-2.113v-1.305h2.202c.825 0 1.533.166 2.124.496a3.349 3.349 0 0 1 1.372 1.428c.319.62.479 1.362.479 2.224 0 .863-.16 1.606-.479 2.23a3.362 3.362 0 0 1-1.383 1.433c-.598.331-1.319.496-2.163.496Zm-1.316-8.307v8.307h-1.505v-8.307h1.505Zm9.032 8.43c-.624 0-1.163-.13-1.617-.39a2.668 2.668 0 0 1-1.048-1.115c-.242-.48-.362-1.045-.362-1.695 0-.643.12-1.206.362-1.689a2.743 2.743 0 0 1 1.02-1.138c.439-.271.956-.407 1.55-.407.383 0 .745.062 1.087.184.346.123.651.312.915.569.267.256.477.583.63.981.152.394.228.864.228 1.411v.457h-5.107v-.987h4.377l-.686.29c0-.353-.054-.66-.161-.92a1.367 1.367 0 0 0-.48-.619c-.212-.149-.476-.223-.792-.223a1.42 1.42 0 0 0-.808.223c-.223.149-.392.35-.507.602a1.958 1.958 0 0 0-.173.837v.685c0 .379.065.705.195.976.134.268.32.472.557.613.242.142.523.212.842.212.208 0 .398-.03.569-.089a1.18 1.18 0 0 0 .446-.268c.126-.122.223-.273.29-.451l1.371.161a2.185 2.185 0 0 1-.496.948 2.374 2.374 0 0 1-.92.625 3.508 3.508 0 0 1-1.282.217Zm8.915-6.356-2.219 6.233h-1.628l-2.213-6.233h1.566l1.444 4.633h.067l1.433-4.633h1.55Zm3.139 6.356c-.625 0-1.164-.13-1.617-.39a2.668 2.668 0 0 1-1.048-1.115c-.242-.48-.363-1.045-.363-1.695 0-.643.121-1.206.363-1.689a2.736 2.736 0 0 1 1.02-1.138c.439-.271.955-.407 1.55-.407.383 0 .745.062 1.087.184.346.123.651.312.915.569.267.256.477.583.63.981.152.394.228.864.228 1.411v.457h-5.107v-.987h4.377l-.686.29c0-.353-.054-.66-.162-.92a1.359 1.359 0 0 0-.479-.619c-.212-.149-.476-.223-.792-.223a1.42 1.42 0 0 0-.808.223c-.223.149-.392.35-.508.602a1.973 1.973 0 0 0-.172.837v.685c0 .379.065.705.195.976.134.268.319.472.557.613.242.142.523.212.842.212.208 0 .398-.03.569-.089a1.18 1.18 0 0 0 .446-.268c.126-.122.223-.273.29-.451l1.371.161a2.185 2.185 0 0 1-.496.948 2.374 2.374 0 0 1-.92.625 3.512 3.512 0 0 1-1.282.217Zm5.029-8.43v8.307H158.6v-8.307h1.467Zm3.802 8.43c-.609 0-1.137-.134-1.583-.401a2.713 2.713 0 0 1-1.037-1.127c-.242-.483-.363-1.044-.363-1.683 0-.643.121-1.206.363-1.69a2.7 2.7 0 0 1 1.037-1.131c.446-.268.974-.402 1.583-.402.61 0 1.138.134 1.584.402.446.267.791.644 1.037 1.131.245.484.368 1.047.368 1.69 0 .639-.123 1.2-.368 1.683a2.72 2.72 0 0 1-1.037 1.127c-.446.267-.974.401-1.584.401Zm0-1.182c.338 0 .617-.089.836-.267.22-.183.383-.428.491-.736.112-.309.167-.651.167-1.026a3.02 3.02 0 0 0-.167-1.037 1.591 1.591 0 0 0-.491-.731c-.219-.182-.498-.273-.836-.273-.331 0-.608.091-.831.273-.223.179-.39.422-.501.731a3.122 3.122 0 0 0-.162 1.037c0 .375.054.717.162 1.026.111.308.278.553.501.736.223.178.5.267.831.267Zm3.797 3.39v-8.564h1.438v1.032h.09c.074-.149.18-.309.317-.48a1.72 1.72 0 0 1 .558-.446c.238-.122.541-.184.909-.184.479 0 .912.123 1.299.368.386.245.693.606.92 1.082.23.476.345 1.061.345 1.756 0 .684-.111 1.266-.334 1.745-.223.48-.53.846-.92 1.098a2.378 2.378 0 0 1-1.316.374c-.353 0-.648-.06-.886-.178a1.92 1.92 0 0 1-.569-.435 2.5 2.5 0 0 1-.323-.485h-.062v3.317h-1.466Zm2.905-3.423c.323 0 .593-.088.808-.262.219-.175.385-.415.496-.72.112-.304.168-.65.168-1.037 0-.386-.056-.73-.168-1.031a1.577 1.577 0 0 0-.49-.708c-.216-.171-.487-.257-.814-.257-.316 0-.584.082-.803.246a1.53 1.53 0 0 0-.496.697 2.982 2.982 0 0 0-.168 1.053c0 .402.056.755.168 1.06.115.301.282.537.501.708.22.167.485.251.798.251Zm3.785 1.092v-6.233h1.4v1.065h.078c.13-.357.345-.635.647-.836.301-.205.657-.307 1.07-.307.424 0 .781.102 1.07.307.29.204.493.483.608.836h.067a1.75 1.75 0 0 1 .703-.831c.327-.208.717-.312 1.17-.312.573 0 1.039.182 1.4.547.364.36.546.888.546 1.583v4.181h-1.472v-3.958c0-.383-.104-.663-.312-.842a1.09 1.09 0 0 0-.753-.273c-.353 0-.628.111-.825.334-.197.22-.295.502-.295.848v3.891h-1.45v-4.014c0-.323-.095-.58-.284-.769-.19-.193-.441-.29-.753-.29-.212 0-.405.054-.58.162a1.168 1.168 0 0 0-.418.451c-.1.193-.15.416-.15.669v3.791h-1.467Zm12.606.123c-.624 0-1.163-.13-1.617-.39a2.668 2.668 0 0 1-1.048-1.115c-.241-.48-.362-1.045-.362-1.695 0-.643.121-1.206.362-1.689a2.743 2.743 0 0 1 1.02-1.138c.439-.271.956-.407 1.55-.407.383 0 .746.062 1.088.184.345.123.65.312.914.569.268.256.478.583.63.981.152.394.228.864.228 1.411v.457h-5.107v-.987h4.377l-.686.29c0-.353-.054-.66-.161-.92a1.367 1.367 0 0 0-.48-.619c-.212-.149-.476-.223-.791-.223-.316 0-.586.074-.809.223-.223.149-.392.35-.507.602a1.973 1.973 0 0 0-.173.837v.685c0 .379.065.705.195.976.134.268.32.472.558.613.241.142.522.212.841.212.209 0 .398-.03.569-.089a1.18 1.18 0 0 0 .446-.268c.127-.122.223-.273.29-.451l1.372.161c-.09.361-.255.677-.497.948a2.366 2.366 0 0 1-.92.625 3.508 3.508 0 0 1-1.282.217Zm5.029-3.769v3.646h-1.466v-6.233h1.438v1.065h.073c.141-.349.362-.626.663-.831.305-.208.691-.312 1.16-.312.431 0 .806.091 1.126.273.32.183.567.45.742.803.178.35.267.773.267 1.271v3.964h-1.466v-3.735c0-.416-.108-.742-.324-.976-.215-.238-.512-.357-.892-.357a1.38 1.38 0 0 0-.685.168 1.205 1.205 0 0 0-.469.485c-.111.208-.167.464-.167.769Zm8.196-2.587v1.138h-3.574v-1.138h3.574Zm-2.699-1.483h1.467v5.843c0 .245.054.428.161.547.108.115.279.172.513.172.063 0 .134-.005.212-.016.078-.012.149-.025.212-.039l.251 1.148a3.001 3.001 0 0 1-.474.106c-.16.026-.32.039-.48.039-.579 0-1.035-.152-1.365-.457-.331-.309-.497-.729-.497-1.26v-6.083Z"/><path fill="#9297A0" d="M86.552 213.088c-.44 0-.836-.078-1.186-.234a1.95 1.95 0 0 1-.833-.697c-.205-.305-.307-.676-.307-1.114v-.15h1.16v.15c0 .212.05.398.146.557.1.16.238.283.411.37.177.083.38.125.61.125.245 0 .455-.052.629-.157a.986.986 0 0 0 .395-.457c.09-.205.136-.455.136-.75v-5.5h1.16v5.5c0 .496-.096.921-.286 1.275-.188.35-.455.619-.802.807-.346.184-.758.275-1.233.275Zm5.172.021c-.367 0-.7-.067-.999-.203a1.67 1.67 0 0 1-.707-.603c-.174-.264-.26-.585-.26-.963 0-.33.062-.598.187-.807.128-.211.3-.379.515-.504.215-.125.455-.219.718-.281a7.56 7.56 0 0 1 .812-.146c.35-.038.633-.071.848-.099.215-.028.371-.071.468-.13.101-.062.151-.161.151-.297v-.026c0-.329-.093-.584-.28-.765-.184-.18-.459-.27-.823-.27-.378 0-.678.083-.9.25-.219.163-.37.348-.453.556l-1.067-.244a2.04 2.04 0 0 1 .557-.853 2.3 2.3 0 0 1 .843-.479 3.29 3.29 0 0 1 1-.151c.232 0 .478.028.738.083.26.052.505.151.734.297.232.142.422.347.567.614.146.267.219.612.219 1.035v3.861h-1.109v-.796h-.041a1.53 1.53 0 0 1-.328.427c-.146.142-.333.26-.562.354a2.2 2.2 0 0 1-.828.14Zm.245-.905c.316 0 .585-.061.807-.182.222-.125.392-.288.51-.489.118-.202.177-.415.177-.64v-.755a.63.63 0 0 1-.235.109 3.196 3.196 0 0 1-.39.089 21.58 21.58 0 0 1-.427.067 16.05 16.05 0 0 1-.348.042 2.94 2.94 0 0 0-.599.146c-.18.062-.326.156-.437.281a.704.704 0 0 0-.161.484c0 .281.104.492.312.634.208.143.472.214.791.214Zm4.834-2.67v3.45H95.68v-5.817h1.093v.957h.078c.132-.316.338-.565.62-.749.28-.187.641-.281 1.082-.281.395 0 .74.083 1.035.25.299.163.529.407.692.733.167.326.25.731.25 1.213v3.694h-1.124v-3.559c0-.42-.11-.749-.333-.989-.222-.242-.524-.364-.905-.364a1.4 1.4 0 0 0-.703.177 1.233 1.233 0 0 0-.484.494c-.118.215-.177.479-.177.791Zm9.856 3.554c-.597 0-1.108-.156-1.535-.468-.423-.312-.748-.763-.973-1.353-.222-.593-.333-1.311-.333-2.154 0-.84.113-1.556.338-2.149.225-.597.55-1.051.973-1.364.427-.315.937-.473 1.53-.473.597 0 1.107.158 1.53.473.427.313.751.767.973 1.364.225.593.338 1.309.338 2.149 0 .843-.111 1.561-.333 2.154-.222.59-.545 1.041-.968 1.353-.423.312-.936.468-1.54.468Zm0-.999c.364 0 .671-.116.921-.348.25-.233.441-.571.572-1.015.132-.448.198-.985.198-1.613 0-.632-.066-1.169-.198-1.613-.131-.448-.322-.788-.572-1.02a1.291 1.291 0 0 0-.921-.354c-.538 0-.954.262-1.249.786-.291.52-.437 1.254-.437 2.201 0 .628.066 1.165.198 1.613.132.444.322.782.572 1.015.253.232.559.348.916.348Zm3.747.895v-.843l2.622-2.726c.278-.292.507-.548.687-.77.184-.226.321-.439.411-.641.094-.201.141-.414.141-.64 0-.26-.061-.483-.182-.671a1.208 1.208 0 0 0-.495-.432 1.614 1.614 0 0 0-.708-.151c-.277 0-.518.058-.723.172a1.188 1.188 0 0 0-.479.479 1.496 1.496 0 0 0-.166.723H110.4c0-.472.108-.884.323-1.238.219-.354.517-.628.895-.823a2.774 2.774 0 0 1 1.291-.296c.489 0 .919.097 1.29.291.371.195.661.458.869.791.208.33.312.703.312 1.119a2.3 2.3 0 0 1-.161.843c-.104.274-.29.581-.557.921-.264.337-.631.742-1.103 1.218l-1.54 1.613v.062h3.486v.999h-5.099Zm21.027 0h-1.243l2.789-7.753h1.353l2.784 7.753h-1.239l-2.196-6.343h-.062l-2.186 6.343Zm.209-3.033h4.022v.978h-4.022v-.978Zm6.051 5.208v-7.992h1.093v.947h.094a3.96 3.96 0 0 1 .286-.422c.125-.159.298-.298.52-.416.222-.121.512-.182.869-.182.469 0 .885.118 1.249.354.368.236.658.577.869 1.025.212.447.318.987.318 1.618 0 .625-.104 1.162-.313 1.613a2.437 2.437 0 0 1-.863 1.036 2.238 2.238 0 0 1-1.254.359c-.351 0-.639-.059-.864-.177a1.722 1.722 0 0 1-.526-.422 3.544 3.544 0 0 1-.291-.421h-.063v3.08h-1.124Zm2.623-3.023c.337 0 .618-.09.843-.27.226-.181.396-.425.51-.734.118-.312.177-.663.177-1.051 0-.385-.057-.73-.172-1.036a1.608 1.608 0 0 0-.51-.723c-.225-.177-.508-.265-.848-.265-.33 0-.607.085-.833.255a1.544 1.544 0 0 0-.515.707 3.002 3.002 0 0 0-.171 1.062c0 .406.059.763.177 1.072a1.6 1.6 0 0 0 .515.723c.229.173.504.26.827.26Zm3.497.848v-5.817h1.087v.931h.063a1.43 1.43 0 0 1 .562-.739 1.59 1.59 0 0 1 .916-.276c.069 0 .151.004.244.011.097.003.175.009.234.015v1.083a2.881 2.881 0 0 0-.593-.063c-.267 0-.506.058-.718.172a1.266 1.266 0 0 0-.494.463c-.118.194-.177.42-.177.677v3.543h-1.124Zm8.7.104c-.596 0-1.108-.156-1.535-.468-.423-.312-.747-.763-.973-1.353-.222-.593-.333-1.311-.333-2.154 0-.84.113-1.556.338-2.149.226-.597.55-1.051.973-1.364.427-.315.937-.473 1.53-.473.597 0 1.107.158 1.53.473.427.313.751.767.973 1.364.226.593.339 1.309.339 2.149 0 .843-.111 1.561-.333 2.154-.223.59-.545 1.041-.968 1.353-.424.312-.937.468-1.541.468Zm0-.999a1.3 1.3 0 0 0 .921-.348c.25-.233.441-.571.573-1.015.132-.448.198-.985.198-1.613 0-.632-.066-1.169-.198-1.613-.132-.448-.323-.788-.573-1.02a1.288 1.288 0 0 0-.921-.354c-.537 0-.954.262-1.249.786-.291.52-.437 1.254-.437 2.201 0 .628.066 1.165.198 1.613.132.444.323.782.573 1.015.253.232.558.348.915.348Zm3.591-.619v-.942l3.346-5.297h.744v1.395h-.479l-2.393 3.788v.062h4.594v.994h-5.812Zm3.663 1.514v-1.8l.011-.432v-5.521h1.113v7.753h-1.124Z"/><path fill="#5F646D" d="M121.593 207.167v.91h-3.174v-.91h3.174Zm-2.326-1.384h1.13v5.495c0 .267.055.463.166.588.111.121.29.182.536.182a2.15 2.15 0 0 0 .396-.042l.213.937a2.634 2.634 0 0 1-.781.119c-.503 0-.905-.14-1.207-.421-.302-.285-.453-.663-.453-1.134v-5.724Zm5.516 7.321c-.544 0-1.021-.125-1.431-.375a2.53 2.53 0 0 1-.947-1.051c-.222-.451-.333-.975-.333-1.571 0-.604.111-1.131.333-1.582a2.52 2.52 0 0 1 .947-1.056c.41-.25.887-.375 1.431-.375.548 0 1.025.125 1.431.375.406.249.722.601.947 1.056.226.451.338.978.338 1.582 0 .596-.112 1.12-.338 1.571a2.524 2.524 0 0 1-.947 1.051c-.406.25-.883.375-1.431.375Zm0-.952c.358 0 .652-.094.885-.281.232-.188.404-.436.515-.744a2.96 2.96 0 0 0 .172-1.02 2.99 2.99 0 0 0-.172-1.031 1.646 1.646 0 0 0-.515-.749c-.233-.187-.527-.281-.885-.281-.354 0-.647.094-.879.281a1.693 1.693 0 0 0-.515.749 2.966 2.966 0 0 0-.172 1.031c0 .367.057.707.172 1.02.114.308.286.556.515.744.232.187.525.281.879.281Z"/><g clip-path="url(#t)"><path fill="#6B707A" fill-rule="evenodd" d="M226.686 202.617a1.218 1.218 0 1 1 0 2.436 1.218 1.218 0 0 1 0-2.436Zm4.872 0a1.217 1.217 0 1 1 0 2.435 1.217 1.217 0 0 1 0-2.435Zm-4.872-4.872a1.218 1.218 0 1 1 0 2.436 1.218 1.218 0 0 1 0-2.436Zm4.872 0a1.217 1.217 0 1 1 0 2.435 1.217 1.217 0 0 1 0-2.435Zm-4.872-4.872a1.218 1.218 0 1 1 0 2.436 1.218 1.218 0 0 1 0-2.436Zm4.872 0a1.217 1.217 0 1 1 0 2.435 1.217 1.217 0 0 1 0-2.435Z" clip-rule="evenodd"/></g></g><g filter="url(#u)"><mask id="v" fill="#fff"><path d="M62 327.418a9.135 9.135 0 0 1 9.135-9.135h287.73a9.135 9.135 0 0 1 9.135 9.135v39.09a9.135 9.135 0 0 1-9.135 9.134H71.135A9.135 9.135 0 0 1 62 366.508v-39.09Z"/></mask><path fill="#141415" d="M62 327.418a9.135 9.135 0 0 1 9.135-9.135h287.73a9.135 9.135 0 0 1 9.135 9.135v39.09a9.135 9.135 0 0 1-9.135 9.134H71.135A9.135 9.135 0 0 1 62 366.508v-39.09Z" shape-rendering="crispEdges"/><path fill="#1D1E21" d="M62 327.418c0-5.597 4.537-10.135 10.135-10.135h285.73c5.598 0 10.135 4.538 10.135 10.135 0-4.493-4.09-8.135-9.135-8.135H71.135c-5.045 0-9.135 3.642-9.135 8.135Zm306 48.224H62h306Zm-306 0v-57.359 57.359Zm306-57.359v57.359-57.359Z" mask="url(#v)"/><g filter="url(#w)"><g clip-path="url(#x)"><rect width="2.284" height="30.449" x="72.657" y="331.738" fill="#fff" fill-opacity=".1" rx="1.142"/><path fill="url(#y)" d="M72.657 331.738h2.284v30.449h-2.284z"/></g></g><path fill="#fff" d="m86.44 341.939-2.343-8.307h1.617l1.5 6.105h.073l1.6-6.105h1.477l1.59 6.111h.083l1.488-6.111h1.628l-2.347 8.307h-1.489l-1.66-5.82h-.068l-1.656 5.82H86.44Zm11.473.123c-.624 0-1.163-.13-1.617-.39a2.667 2.667 0 0 1-1.048-1.115c-.242-.48-.362-1.045-.362-1.695 0-.643.12-1.206.362-1.689a2.737 2.737 0 0 1 1.02-1.138c.439-.271.956-.407 1.55-.407.383 0 .746.062 1.088.184.345.123.65.312.914.569.268.256.478.583.63.981.152.394.228.864.228 1.411v.457h-5.106v-.987h4.376l-.686.29c0-.353-.053-.66-.161-.92a1.366 1.366 0 0 0-.48-.619c-.212-.149-.476-.223-.791-.223-.316 0-.586.074-.809.223-.223.149-.392.35-.507.602a1.97 1.97 0 0 0-.173.837v.685c0 .379.065.705.195.976.134.268.32.472.558.613.241.142.522.212.841.212.209 0 .398-.03.57-.089a1.18 1.18 0 0 0 .445-.268c.126-.122.223-.273.29-.451l1.372.161c-.09.361-.255.677-.497.948a2.373 2.373 0 0 1-.92.625 3.508 3.508 0 0 1-1.282.217Zm6.869-.011c-.353 0-.649-.06-.887-.178a1.929 1.929 0 0 1-.568-.435 2.555 2.555 0 0 1-.324-.485h-.089v.986h-1.438v-8.307h1.466v3.106h.061a2.79 2.79 0 0 1 .318-.48 1.72 1.72 0 0 1 .558-.446c.238-.122.541-.184.909-.184.479 0 .912.123 1.299.368.386.245.693.606.919 1.082.231.476.346 1.061.346 1.756 0 .684-.111 1.266-.334 1.745-.223.48-.53.846-.92 1.098a2.378 2.378 0 0 1-1.316.374Zm-.401-1.204c.323 0 .592-.088.808-.262.219-.175.385-.415.496-.72.112-.304.167-.65.167-1.037 0-.386-.055-.73-.167-1.031a1.577 1.577 0 0 0-.49-.708c-.216-.171-.487-.257-.814-.257-.316 0-.584.082-.803.246-.216.163-.381.396-.497.697a3.006 3.006 0 0 0-.167 1.053c0 .402.056.755.167 1.06.116.301.283.537.502.708.22.167.485.251.798.251Zm6.255-7.215h1.845l2.465 6.016h.095l2.469-6.016h1.868v8.307h-1.477v-5.709h-.067l-2.308 5.682h-1.082l-2.28-5.693h-.078v5.72h-1.45v-8.307Zm11.68 8.436a2.6 2.6 0 0 1-1.07-.212 1.734 1.734 0 0 1-.747-.636c-.182-.279-.273-.622-.273-1.031 0-.35.065-.64.195-.87.13-.23.306-.414.529-.552.227-.137.482-.242.764-.312.283-.074.574-.126.876-.156.367-.041.665-.076.892-.106.226-.03.39-.078.49-.145.104-.067.156-.171.156-.312v-.028c0-.301-.089-.535-.267-.703-.179-.167-.439-.251-.781-.251-.36 0-.647.078-.858.235-.209.156-.35.34-.424.552l-1.366-.196c.108-.379.286-.695.535-.947.249-.257.552-.448.909-.575.36-.13.758-.195 1.193-.195.297 0 .595.036.892.106.297.067.571.182.82.346.249.163.447.383.596.658.149.275.223.619.223 1.031v4.17h-1.41v-.858h-.045a1.815 1.815 0 0 1-.981.847c-.238.093-.521.14-.848.14Zm.374-1.082c.297 0 .554-.058.769-.173.216-.119.383-.275.502-.468.119-.197.178-.411.178-.641v-.731a.739.739 0 0 1-.234.106c-.108.03-.23.058-.368.084a8.835 8.835 0 0 1-.407.067c-.13.018-.243.033-.34.044-.219.03-.416.08-.591.151a.998.998 0 0 0-.407.279.695.695 0 0 0-.15.463c0 .271.098.475.295.613.197.137.448.206.753.206Zm3.997.953v-6.233h1.467v6.233h-1.467Zm.736-7.108a.851.851 0 0 1-.602-.234.744.744 0 0 1-.251-.563.75.75 0 0 1 .251-.569.851.851 0 0 1 .602-.234c.231 0 .43.078.597.234a.744.744 0 0 1 .251.563.75.75 0 0 1-.251.569.845.845 0 0 1-.597.234Zm3.284 3.462v3.646h-1.466v-6.233h1.438v1.065h.073c.141-.349.362-.626.663-.831.305-.208.692-.312 1.16-.312.431 0 .806.091 1.126.273.32.183.567.45.742.803.178.35.267.773.267 1.271v3.964h-1.466v-3.735c0-.416-.108-.742-.323-.976-.216-.238-.513-.357-.892-.357a1.38 1.38 0 0 0-.686.168 1.205 1.205 0 0 0-.469.485c-.111.208-.167.464-.167.769Zm8.196-2.587v1.138h-3.574v-1.138h3.574Zm-2.699-1.483h1.467v5.843c0 .245.054.428.161.547.108.115.279.172.513.172.064 0 .134-.005.212-.016.078-.012.149-.025.212-.039l.251 1.148a3.001 3.001 0 0 1-.474.106c-.16.026-.32.039-.479.039-.58 0-1.036-.152-1.366-.457-.331-.309-.497-.729-.497-1.26v-6.083Zm6.2 7.839c-.624 0-1.163-.13-1.617-.39a2.668 2.668 0 0 1-1.048-1.115c-.241-.48-.362-1.045-.362-1.695 0-.643.121-1.206.362-1.689a2.743 2.743 0 0 1 1.02-1.138c.439-.271.956-.407 1.55-.407.383 0 .746.062 1.088.184.345.123.65.312.914.569.268.256.478.583.63.981.152.394.229.864.229 1.411v.457h-5.107v-.987h4.376l-.686.29c0-.353-.053-.66-.161-.92a1.367 1.367 0 0 0-.48-.619c-.212-.149-.476-.223-.791-.223-.316 0-.586.074-.809.223-.223.149-.392.35-.507.602a1.973 1.973 0 0 0-.173.837v.685c0 .379.065.705.195.976.134.268.32.472.558.613.241.142.522.212.841.212.209 0 .398-.03.569-.089.175-.06.324-.149.446-.268.127-.122.223-.273.29-.451l1.372.161c-.09.361-.255.677-.497.948a2.37 2.37 0 0 1-.919.625c-.372.145-.8.217-1.283.217Zm5.029-3.769v3.646h-1.466v-6.233h1.438v1.065h.073c.141-.349.362-.626.663-.831.305-.208.692-.312 1.16-.312.431 0 .806.091 1.126.273.32.183.567.45.742.803.178.35.267.773.267 1.271v3.964h-1.466v-3.735c0-.416-.108-.742-.323-.976-.216-.238-.513-.357-.893-.357a1.38 1.38 0 0 0-.685.168 1.205 1.205 0 0 0-.469.485c-.111.208-.167.464-.167.769Zm6.886 3.775c-.398 0-.755-.071-1.071-.212a1.734 1.734 0 0 1-.747-.636c-.182-.279-.273-.622-.273-1.031 0-.35.065-.64.195-.87.13-.23.307-.414.53-.552a2.73 2.73 0 0 1 .764-.312c.282-.074.574-.126.875-.156.368-.041.665-.076.892-.106.227-.03.39-.078.491-.145.104-.067.156-.171.156-.312v-.028c0-.301-.09-.535-.268-.703-.178-.167-.439-.251-.781-.251-.36 0-.646.078-.858.235-.208.156-.35.34-.424.552l-1.366-.196c.108-.379.286-.695.535-.947.249-.257.552-.448.909-.575.361-.13.758-.195 1.193-.195.298 0 .595.036.892.106.298.067.571.182.82.346.249.163.448.383.596.658.149.275.224.619.224 1.031v4.17h-1.411v-.858h-.045a1.795 1.795 0 0 1-.981.847c-.238.093-.52.14-.847.14Zm.373-1.082c.298 0 .554-.058.77-.173.215-.119.382-.275.501-.468.119-.197.179-.411.179-.641v-.731a.76.76 0 0 1-.234.106c-.108.03-.231.058-.368.084a9.305 9.305 0 0 1-.747.111c-.22.03-.417.08-.591.151a.991.991 0 0 0-.407.279.69.69 0 0 0-.151.463c0 .271.099.475.296.613.197.137.447.206.752.206Zm5.464-2.693v3.646h-1.466v-6.233h1.438v1.065h.073c.141-.349.362-.626.663-.831.305-.208.691-.312 1.16-.312.431 0 .806.091 1.126.273.32.183.567.45.741.803.179.35.268.773.268 1.271v3.964h-1.466v-3.735c0-.416-.108-.742-.324-.976-.215-.238-.513-.357-.892-.357a1.38 1.38 0 0 0-.685.168 1.199 1.199 0 0 0-.469.485c-.111.208-.167.464-.167.769Zm7.805 3.769c-.62 0-1.154-.136-1.6-.407a2.716 2.716 0 0 1-1.026-1.137c-.237-.483-.356-1.039-.356-1.667 0-.636.12-1.195.362-1.678a2.71 2.71 0 0 1 1.031-1.132c.447-.275.972-.413 1.578-.413.51 0 .959.093 1.35.279a2.303 2.303 0 0 1 1.332 1.962h-1.405c-.037-.2-.11-.381-.217-.54a1.148 1.148 0 0 0-.424-.379 1.267 1.267 0 0 0-.613-.14c-.301 0-.565.082-.792.245-.223.16-.398.391-.524.692-.127.301-.19.661-.19 1.081 0 .424.062.79.184 1.099.123.305.298.541.524.708.227.163.493.245.798.245.323 0 .596-.095.819-.284.227-.19.372-.452.435-.786h1.405a2.387 2.387 0 0 1-.39 1.17 2.353 2.353 0 0 1-.92.798c-.387.189-.84.284-1.361.284Zm6.223 0c-.625 0-1.164-.13-1.617-.39a2.662 2.662 0 0 1-1.048-1.115c-.242-.48-.363-1.045-.363-1.695 0-.643.121-1.206.363-1.689a2.73 2.73 0 0 1 1.02-1.138c.438-.271.955-.407 1.55-.407.383 0 .745.062 1.087.184.346.123.65.312.914.569.268.256.478.583.63.981.153.394.229.864.229 1.411v.457h-5.107v-.987h4.376l-.685.29c0-.353-.054-.66-.162-.92a1.372 1.372 0 0 0-.479-.619c-.212-.149-.476-.223-.792-.223-.316 0-.586.074-.809.223-.223.149-.392.35-.507.602a1.973 1.973 0 0 0-.173.837v.685c0 .379.065.705.195.976.134.268.32.472.558.613.242.142.522.212.842.212.208 0 .398-.03.568-.089.175-.06.324-.149.447-.268a1.2 1.2 0 0 0 .289-.451l1.372.161a2.196 2.196 0 0 1-.496.948 2.381 2.381 0 0 1-.92.625 3.512 3.512 0 0 1-1.282.217Z"/><path fill="#9297A0" d="M86.552 361.088c-.44 0-.836-.078-1.186-.234a1.95 1.95 0 0 1-.833-.697c-.205-.305-.307-.676-.307-1.114v-.15h1.16v.15c0 .212.05.398.146.557.1.16.238.283.411.37.177.083.38.125.61.125.245 0 .455-.052.629-.157a.986.986 0 0 0 .395-.457c.09-.205.136-.455.136-.75v-5.5h1.16v5.5c0 .496-.096.921-.286 1.275-.188.35-.455.619-.802.807-.346.184-.758.275-1.233.275Zm5.172.021c-.367 0-.7-.067-.999-.203a1.67 1.67 0 0 1-.707-.603c-.174-.264-.26-.585-.26-.963 0-.33.062-.598.187-.807.128-.211.3-.379.515-.504.215-.125.455-.219.718-.281a7.56 7.56 0 0 1 .812-.146c.35-.038.633-.071.848-.099.215-.028.371-.071.468-.13.101-.062.151-.161.151-.297v-.026c0-.329-.093-.584-.28-.765-.184-.18-.459-.27-.823-.27-.378 0-.678.083-.9.25-.219.163-.37.348-.453.556l-1.067-.244a2.04 2.04 0 0 1 .557-.853 2.3 2.3 0 0 1 .843-.479 3.29 3.29 0 0 1 1-.151c.232 0 .478.028.738.083.26.052.505.151.734.297.232.142.422.347.567.614.146.267.219.612.219 1.035v3.861h-1.109v-.796h-.041a1.53 1.53 0 0 1-.328.427c-.146.142-.333.26-.562.354a2.2 2.2 0 0 1-.828.14Zm.245-.905c.316 0 .585-.061.807-.182.222-.125.392-.288.51-.489.118-.202.177-.415.177-.64v-.755a.63.63 0 0 1-.235.109 3.196 3.196 0 0 1-.39.089 21.58 21.58 0 0 1-.427.067 16.05 16.05 0 0 1-.348.042 2.94 2.94 0 0 0-.599.146c-.18.062-.326.156-.437.281a.704.704 0 0 0-.161.484c0 .281.104.492.312.634.208.143.472.214.791.214Zm4.834-2.67v3.45H95.68v-5.817h1.093v.957h.078c.132-.316.338-.565.62-.749.28-.187.641-.281 1.082-.281.395 0 .74.083 1.035.25.299.163.529.407.692.733.167.326.25.731.25 1.213v3.694h-1.124v-3.559c0-.42-.11-.749-.333-.989-.222-.242-.524-.364-.905-.364a1.4 1.4 0 0 0-.703.177 1.233 1.233 0 0 0-.484.494c-.118.215-.177.479-.177.791Zm9.856 3.554c-.597 0-1.108-.156-1.535-.468-.423-.312-.748-.763-.973-1.353-.222-.593-.333-1.311-.333-2.154 0-.84.113-1.556.338-2.149.225-.597.55-1.051.973-1.364.427-.315.937-.473 1.53-.473.597 0 1.107.158 1.53.473.427.313.751.767.973 1.364.225.593.338 1.309.338 2.149 0 .843-.111 1.561-.333 2.154-.222.59-.545 1.041-.968 1.353-.423.312-.936.468-1.54.468Zm0-.999c.364 0 .671-.116.921-.348.25-.233.441-.571.572-1.015.132-.448.198-.985.198-1.613 0-.632-.066-1.169-.198-1.613-.131-.448-.322-.788-.572-1.02a1.291 1.291 0 0 0-.921-.354c-.538 0-.954.262-1.249.786-.291.52-.437 1.254-.437 2.201 0 .628.066 1.165.198 1.613.132.444.322.782.572 1.015.253.232.559.348.916.348Zm3.747.895v-.843l2.622-2.726c.278-.292.507-.548.687-.77.184-.226.321-.439.411-.641.094-.201.141-.414.141-.64 0-.26-.061-.483-.182-.671a1.208 1.208 0 0 0-.495-.432 1.614 1.614 0 0 0-.708-.151c-.277 0-.518.058-.723.172a1.188 1.188 0 0 0-.479.479 1.496 1.496 0 0 0-.166.723H110.4c0-.472.108-.884.323-1.238.219-.354.517-.628.895-.823a2.774 2.774 0 0 1 1.291-.296c.489 0 .919.097 1.29.291.371.195.661.458.869.791.208.33.312.703.312 1.119a2.3 2.3 0 0 1-.161.843c-.104.274-.29.581-.557.921-.264.337-.631.742-1.103 1.218l-1.54 1.613v.062h3.486v.999h-5.099Zm22.219.104c-.44 0-.836-.078-1.186-.234a1.95 1.95 0 0 1-.833-.697c-.205-.305-.307-.676-.307-1.114v-.15h1.16v.15c0 .212.049.398.146.557.101.16.238.283.411.37.177.083.38.125.609.125.246 0 .456-.052.63-.157a.987.987 0 0 0 .395-.457c.09-.205.135-.455.135-.75v-5.5h1.161v5.5c0 .496-.096.921-.286 1.275-.188.35-.455.619-.802.807-.347.184-.758.275-1.233.275Zm7.171-2.508v-3.413h1.124v5.817h-1.104v-1.009h-.062a1.901 1.901 0 0 1-.645.775c-.292.208-.656.311-1.093.307-.375 0-.706-.081-.994-.244a1.69 1.69 0 0 1-.671-.734c-.16-.326-.239-.73-.239-1.213v-3.699h1.123v3.569c0 .392.112.706.334.942.222.236.508.352.858.349.212 0 .422-.052.63-.156.211-.104.387-.264.525-.479.143-.215.214-.486.214-.812Zm3.33-1.046v3.45h-1.124v-5.817h1.093v.957h.078a1.62 1.62 0 0 1 .619-.749c.281-.187.642-.281 1.082-.281.396 0 .741.083 1.036.25.298.163.529.407.692.733.167.326.25.731.25 1.213v3.694h-1.124v-3.559c0-.42-.111-.749-.333-.989-.222-.242-.524-.364-.906-.364-.26 0-.494.059-.702.177a1.231 1.231 0 0 0-.484.494c-.118.215-.177.479-.177.791Zm9.856 3.554c-.597 0-1.109-.156-1.535-.468-.424-.312-.748-.763-.973-1.353-.222-.593-.333-1.311-.333-2.154 0-.84.112-1.556.338-2.149.225-.597.55-1.051.973-1.364.427-.315.936-.473 1.53-.473.596 0 1.106.158 1.53.473.426.313.751.767.973 1.364.225.593.338 1.309.338 2.149 0 .843-.111 1.561-.333 2.154-.222.59-.545 1.041-.968 1.353-.423.312-.937.468-1.54.468Zm0-.999c.364 0 .671-.116.921-.348.249-.233.44-.571.572-1.015.132-.448.198-.985.198-1.613 0-.632-.066-1.169-.198-1.613-.132-.448-.323-.788-.572-1.02a1.291 1.291 0 0 0-.921-.354c-.538 0-.954.262-1.249.786-.292.52-.437 1.254-.437 2.201 0 .628.066 1.165.197 1.613.132.444.323.782.573 1.015.253.232.558.348.916.348Zm6.546-6.858v7.753h-1.155v-6.577h-.052l-1.842 1.212v-1.124l1.925-1.264h1.124Z"/><path fill="#5F646D" d="M121.593 355.167v.91h-3.174v-.91h3.174Zm-2.326-1.384h1.13v5.495c0 .267.055.463.166.588.111.121.29.182.536.182a2.15 2.15 0 0 0 .396-.042l.213.937a2.634 2.634 0 0 1-.781.119c-.503 0-.905-.14-1.207-.421-.302-.285-.453-.663-.453-1.134v-5.724Zm5.516 7.321c-.544 0-1.021-.125-1.431-.375a2.53 2.53 0 0 1-.947-1.051c-.222-.451-.333-.975-.333-1.571 0-.604.111-1.131.333-1.582a2.52 2.52 0 0 1 .947-1.056c.41-.25.887-.375 1.431-.375.548 0 1.025.125 1.431.375.406.249.722.601.947 1.056.226.451.338.978.338 1.582 0 .596-.112 1.12-.338 1.571a2.524 2.524 0 0 1-.947 1.051c-.406.25-.883.375-1.431.375Zm0-.952c.358 0 .652-.094.885-.281.232-.188.404-.436.515-.744a2.96 2.96 0 0 0 .172-1.02 2.99 2.99 0 0 0-.172-1.031 1.646 1.646 0 0 0-.515-.749c-.233-.187-.527-.281-.885-.281-.354 0-.647.094-.879.281a1.693 1.693 0 0 0-.515.749 2.966 2.966 0 0 0-.172 1.031c0 .367.057.707.172 1.02.114.308.286.556.515.744.232.187.525.281.879.281Z"/><g clip-path="url(#z)"><path fill="#6B707A" fill-rule="evenodd" d="M346.686 350.617a1.218 1.218 0 1 1 0 2.436 1.218 1.218 0 0 1 0-2.436Zm4.872 0a1.217 1.217 0 1 1 0 2.435 1.217 1.217 0 0 1 0-2.435Zm-4.872-4.872a1.218 1.218 0 1 1 0 2.436 1.218 1.218 0 0 1 0-2.436Zm4.872 0a1.217 1.217 0 1 1 0 2.435 1.217 1.217 0 0 1 0-2.435Zm-4.872-4.872a1.218 1.218 0 1 1 0 2.436 1.218 1.218 0 0 1 0-2.436Zm4.872 0a1.217 1.217 0 1 1 0 2.435 1.217 1.217 0 0 1 0-2.435Z" clip-rule="evenodd"/></g></g><g filter="url(#A)"><mask id="B" fill="#fff"><path d="M345 401.418a9.135 9.135 0 0 1 9.135-9.135h190.73a9.135 9.135 0 0 1 9.135 9.135v39.09a9.135 9.135 0 0 1-9.135 9.134h-190.73a9.135 9.135 0 0 1-9.135-9.134v-39.09Z"/></mask><path fill="#141415" d="M345 401.418a9.135 9.135 0 0 1 9.135-9.135h190.73a9.135 9.135 0 0 1 9.135 9.135v39.09a9.135 9.135 0 0 1-9.135 9.134h-190.73a9.135 9.135 0 0 1-9.135-9.134v-39.09Z" shape-rendering="crispEdges"/><path fill="#1D1E21" d="M345 401.418c0-5.597 4.537-10.135 10.135-10.135h188.73c5.598 0 10.135 4.538 10.135 10.135 0-4.493-4.09-8.135-9.135-8.135h-190.73c-5.045 0-9.135 3.642-9.135 8.135Zm209 48.224H345h209Zm-209 0v-57.359 57.359Zm209-57.359v57.359-57.359Z" mask="url(#B)"/><g filter="url(#C)"><g clip-path="url(#D)"><rect width="2.284" height="30.449" x="355.657" y="405.738" fill="#fff" fill-opacity=".1" rx="1.142"/><path fill="url(#E)" d="M355.657 405.738h2.284v30.449h-2.284z"/></g></g><path fill="#fff" d="M370.498 415.939h-2.107v-1.304h2.029c.577 0 1.058-.104 1.444-.312.391-.212.682-.53.876-.954.197-.423.295-.953.295-1.589 0-.635-.096-1.163-.29-1.583a1.975 1.975 0 0 0-.864-.942c-.383-.212-.857-.318-1.422-.318h-2.113v-1.305h2.203c.825 0 1.533.166 2.124.496a3.341 3.341 0 0 1 1.371 1.428c.32.62.48 1.362.48 2.224 0 .863-.16 1.606-.48 2.23a3.354 3.354 0 0 1-1.382 1.433c-.599.331-1.32.496-2.164.496Zm-1.315-8.307v8.307h-1.506v-8.307h1.506Zm9.032 8.43c-.625 0-1.164-.13-1.617-.39a2.662 2.662 0 0 1-1.048-1.115c-.242-.48-.363-1.045-.363-1.695 0-.643.121-1.206.363-1.689a2.73 2.73 0 0 1 1.02-1.138c.439-.271.955-.407 1.55-.407.383 0 .745.062 1.087.184.346.123.651.312.914.569.268.256.478.583.63.981.153.394.229.864.229 1.411v.457h-5.107v-.987h4.377l-.686.29c0-.353-.054-.66-.162-.92a1.366 1.366 0 0 0-.479-.619c-.212-.149-.476-.223-.792-.223a1.42 1.42 0 0 0-.808.223c-.223.149-.392.35-.508.602a1.973 1.973 0 0 0-.173.837v.685c0 .379.065.705.196.976.133.268.319.472.557.613.242.142.522.212.842.212.208 0 .398-.03.569-.089.174-.06.323-.149.446-.268.126-.122.223-.273.29-.451l1.371.161a2.185 2.185 0 0 1-.496.948 2.381 2.381 0 0 1-.92.625 3.512 3.512 0 0 1-1.282.217Zm3.562 2.208v-8.564h1.439v1.032h.089c.074-.149.18-.309.318-.48.137-.174.323-.323.557-.446.238-.122.541-.184.909-.184.48 0 .913.123 1.299.368.387.245.693.606.92 1.082.23.476.346 1.061.346 1.756 0 .684-.112 1.266-.335 1.745-.223.48-.529.846-.92 1.098a2.376 2.376 0 0 1-1.316.374c-.353 0-.648-.06-.886-.178a1.934 1.934 0 0 1-.569-.435 2.5 2.5 0 0 1-.323-.485h-.061v3.317h-1.467Zm2.905-3.423c.323 0 .593-.088.808-.262.22-.175.385-.415.497-.72.111-.304.167-.65.167-1.037 0-.386-.056-.73-.167-1.031a1.578 1.578 0 0 0-.491-.708c-.216-.171-.487-.257-.814-.257-.316 0-.583.082-.803.246a1.538 1.538 0 0 0-.496.697 2.983 2.983 0 0 0-.167 1.053c0 .402.055.755.167 1.06.115.301.282.537.502.708.219.167.485.251.797.251Zm5.252-7.215v8.307h-1.466v-8.307h1.466Zm3.802 8.43c-.609 0-1.137-.134-1.583-.401a2.713 2.713 0 0 1-1.037-1.127c-.242-.483-.362-1.044-.362-1.683 0-.643.12-1.206.362-1.69a2.7 2.7 0 0 1 1.037-1.131c.446-.268.974-.402 1.583-.402.61 0 1.138.134 1.584.402.446.267.791.644 1.037 1.131.245.484.368 1.047.368 1.69 0 .639-.123 1.2-.368 1.683a2.72 2.72 0 0 1-1.037 1.127c-.446.267-.974.401-1.584.401Zm0-1.182c.339 0 .617-.089.837-.267.219-.183.383-.428.49-.736.112-.309.168-.651.168-1.026a3.02 3.02 0 0 0-.168-1.037 1.59 1.59 0 0 0-.49-.731c-.22-.182-.498-.273-.837-.273-.33 0-.607.091-.83.273a1.609 1.609 0 0 0-.502.731 3.122 3.122 0 0 0-.162 1.037c0 .375.054.717.162 1.026.111.308.279.553.502.736.223.178.5.267.83.267Zm4.5 3.39a2.597 2.597 0 0 1-.558-.045 2.127 2.127 0 0 1-.407-.106l.346-1.143.072.023c.298.078.55.083.759.016.211-.066.38-.269.507-.607l.123-.335-2.253-6.367h1.556l1.432 4.711h.067l1.439-4.711h1.566l-2.497 6.986a2.811 2.811 0 0 1-.457.848c-.19.237-.424.418-.703.54-.279.127-.61.19-.992.19Zm5.24-2.331v-6.233h1.4v1.065h.078c.13-.357.346-.635.647-.836.301-.205.658-.307 1.07-.307.424 0 .781.102 1.071.307a1.6 1.6 0 0 1 .607.836h.067c.141-.346.376-.622.703-.831.327-.208.717-.312 1.17-.312.573 0 1.039.182 1.4.547.364.36.546.888.546 1.583v4.181h-1.472v-3.958c0-.383-.104-.663-.312-.842a1.09 1.09 0 0 0-.752-.273c-.354 0-.629.111-.826.334-.197.22-.295.502-.295.848v3.891h-1.45v-4.014c0-.323-.094-.58-.284-.769-.19-.193-.441-.29-.753-.29-.212 0-.405.054-.58.162a1.168 1.168 0 0 0-.418.451c-.1.193-.15.416-.15.669v3.791h-1.467Zm12.606.123c-.624 0-1.163-.13-1.617-.39a2.674 2.674 0 0 1-1.048-1.115c-.241-.48-.362-1.045-.362-1.695 0-.643.121-1.206.362-1.689a2.739 2.739 0 0 1 1.021-1.138c.438-.271.955-.407 1.549-.407.383 0 .746.062 1.088.184.345.123.65.312.914.569.268.256.478.583.63.981.152.394.229.864.229 1.411v.457h-5.107v-.987h4.376l-.686.29c0-.353-.053-.66-.161-.92a1.367 1.367 0 0 0-.48-.619c-.212-.149-.475-.223-.791-.223-.316 0-.586.074-.809.223-.223.149-.392.35-.507.602a1.973 1.973 0 0 0-.173.837v.685c0 .379.065.705.195.976.134.268.32.472.558.613.241.142.522.212.842.212.208 0 .397-.03.568-.089.175-.06.324-.149.446-.268.127-.122.223-.273.29-.451l1.372.161a2.196 2.196 0 0 1-.496.948 2.381 2.381 0 0 1-.92.625c-.372.145-.8.217-1.283.217Zm5.029-3.769v3.646h-1.466v-6.233h1.438v1.065h.073c.141-.349.362-.626.663-.831.305-.208.692-.312 1.16-.312.431 0 .806.091 1.126.273.32.183.567.45.742.803.178.35.267.773.267 1.271v3.964h-1.466v-3.735c0-.416-.108-.742-.323-.976-.216-.238-.513-.357-.892-.357a1.38 1.38 0 0 0-.686.168 1.205 1.205 0 0 0-.469.485c-.111.208-.167.464-.167.769Zm8.196-2.587v1.138h-3.574v-1.138h3.574Zm-2.699-1.483h1.467v5.843c0 .245.054.428.161.547.108.115.279.172.513.172.064 0 .134-.005.212-.016.078-.012.149-.025.212-.039l.251 1.148a3.001 3.001 0 0 1-.474.106c-.16.026-.32.039-.479.039-.58 0-1.036-.152-1.366-.457-.331-.309-.497-.729-.497-1.26v-6.083Zm8.386 7.839c-.565 0-1.054-.102-1.467-.307a2.29 2.29 0 0 1-.942-.83 2.218 2.218 0 0 1-.329-1.193 1.8 1.8 0 0 1 .207-.876 2.69 2.69 0 0 1 .574-.708c.245-.219.522-.44.831-.663l1.477-1.004a2.04 2.04 0 0 0 .485-.451.884.884 0 0 0 .173-.547c0-.178-.074-.347-.223-.507-.149-.16-.355-.24-.619-.24a.868.868 0 0 0-.886.87c0 .178.05.362.15.552.1.186.232.379.396.58.167.2.344.414.53.641l3.897 4.56h-1.595l-3.234-3.702a42.16 42.16 0 0 1-.696-.836 4.676 4.676 0 0 1-.547-.853 2.221 2.221 0 0 1-.212-.964c0-.394.091-.746.274-1.054.182-.309.434-.55.758-.725a2.354 2.354 0 0 1 1.143-.268c.438 0 .816.088 1.131.262.316.171.558.4.725.686.171.283.257.595.257.937 0 .39-.099.74-.296 1.048a3.08 3.08 0 0 1-.808.842l-1.684 1.227c-.275.204-.472.408-.591.613-.115.201-.173.373-.173.518 0 .22.056.418.168.597.111.178.267.321.468.429.201.108.435.162.702.162.301 0 .595-.067.881-.201a2.6 2.6 0 0 0 .786-.58 2.81 2.81 0 0 0 .569-.892 3.07 3.07 0 0 0 .212-1.159h1.266c0 .524-.058.981-.173 1.371a3.429 3.429 0 0 1-.452.981 3.048 3.048 0 0 1-.58.636c-.067.048-.13.095-.189.139-.06.045-.121.09-.184.134a2.814 2.814 0 0 1-1.032.591c-.39.123-.773.184-1.148.184Zm7.136-.123v-8.307h1.505v3.518h3.847v-3.518h1.506v8.307h-1.506v-3.523h-3.847v3.523h-1.505Zm10.716.123c-.61 0-1.137-.134-1.583-.401a2.706 2.706 0 0 1-1.037-1.127c-.242-.483-.363-1.044-.363-1.683 0-.643.121-1.206.363-1.69.245-.487.59-.864 1.037-1.131.446-.268.973-.402 1.583-.402.609 0 1.137.134 1.583.402a2.7 2.7 0 0 1 1.037 1.131c.246.484.368 1.047.368 1.69 0 .639-.122 1.2-.368 1.683a2.713 2.713 0 0 1-1.037 1.127c-.446.267-.974.401-1.583.401Zm0-1.182c.338 0 .617-.089.836-.267.22-.183.383-.428.491-.736.111-.309.167-.651.167-1.026 0-.383-.056-.729-.167-1.037a1.591 1.591 0 0 0-.491-.731c-.219-.182-.498-.273-.836-.273-.331 0-.608.091-.831.273-.223.179-.39.422-.502.731a3.148 3.148 0 0 0-.161 1.037c0 .375.054.717.161 1.026.112.308.279.553.502.736.223.178.5.267.831.267Zm8.714-3.518-1.332.139a1.072 1.072 0 0 0-.363-.54c-.186-.16-.448-.24-.786-.24-.305 0-.561.067-.769.201-.205.133-.307.304-.307.513 0 .182.067.332.201.451.137.115.364.208.68.279l1.065.223c.583.123 1.02.323 1.31.602.29.279.435.639.435 1.082 0 .39-.113.736-.34 1.037-.227.301-.541.535-.942.702-.398.167-.857.251-1.377.251-.762 0-1.376-.16-1.84-.479a1.96 1.96 0 0 1-.831-1.344l1.433-.134c.063.279.2.491.412.636.216.141.491.212.826.212.349 0 .63-.071.841-.212.212-.145.318-.322.318-.53 0-.349-.279-.587-.836-.714l-1.065-.223c-.598-.13-1.041-.34-1.327-.63-.286-.293-.429-.667-.429-1.12 0-.387.106-.721.318-1.004.211-.282.507-.502.886-.658.379-.156.818-.234 1.316-.234.732 0 1.306.158 1.723.474.42.312.68.732.78 1.26Zm4.031-1.656v1.138h-3.574v-1.138h3.574Zm-2.698-1.483h1.466v5.843c0 .245.054.428.162.547.107.115.278.172.513.172.063 0 .133-.005.211-.016.078-.012.149-.025.212-.039l.251 1.148a3.001 3.001 0 0 1-.474.106c-.16.026-.319.039-.479.039-.58 0-1.035-.152-1.366-.457-.331-.309-.496-.729-.496-1.26v-6.083Zm3.507 7.716v-6.233h1.466v6.233H466.4Zm.735-7.108a.853.853 0 0 1-.602-.234.744.744 0 0 1-.251-.563.75.75 0 0 1 .251-.569.853.853 0 0 1 .602-.234c.231 0 .43.078.597.234a.744.744 0 0 1 .251.563.75.75 0 0 1-.251.569.845.845 0 0 1-.597.234Zm3.284 3.462v3.646h-1.466v-6.233h1.438v1.065h.073c.141-.349.362-.626.663-.831.305-.208.692-.312 1.16-.312.431 0 .807.091 1.126.273.32.183.567.45.742.803.178.35.267.773.267 1.271v3.964h-1.466v-3.735c0-.416-.108-.742-.323-.976-.216-.238-.513-.357-.892-.357-.257 0-.485.056-.686.168a1.196 1.196 0 0 0-.468.485c-.112.208-.168.464-.168.769Zm7.789 6.111c-.792 0-1.414-.155-1.868-.463-.453-.305-.745-.675-.875-1.109l1.316-.324c.059.123.147.244.262.363.115.122.269.223.463.301.193.081.436.122.73.122.416 0 .76-.102 1.031-.306.275-.201.413-.53.413-.987v-1.177h-.084c-.07.149-.178.303-.323.463-.145.156-.336.29-.574.402-.235.107-.532.161-.892.161-.476 0-.909-.113-1.299-.34-.387-.227-.695-.565-.926-1.015-.227-.449-.34-1.012-.34-1.689 0-.684.113-1.262.34-1.734.231-.472.541-.831.931-1.076.39-.245.825-.368 1.305-.368.364 0 .665.062.903.184.238.123.427.272.569.446.141.171.251.331.329.48h.078v-1.032h1.433v6.334c0 .531-.127.972-.38 1.321-.252.35-.6.61-1.042.781a4.045 4.045 0 0 1-1.5.262Zm.011-3.708c.469 0 .829-.167 1.082-.502.256-.338.384-.804.384-1.399 0-.394-.055-.738-.167-1.031a1.483 1.483 0 0 0-.496-.686 1.302 1.302 0 0 0-.803-.246c-.327 0-.6.086-.819.257a1.56 1.56 0 0 0-.497.702 2.925 2.925 0 0 0-.161 1.004c0 .379.055.712.167.998.111.286.277.509.496.669.223.156.495.234.814.234Z"/><path fill="#9297A0" d="M369.552 435.088c-.44 0-.836-.078-1.186-.234a1.95 1.95 0 0 1-.833-.697c-.205-.305-.307-.676-.307-1.114v-.15h1.161v.15c0 .212.048.398.145.557.101.16.238.283.411.37.177.083.38.125.609.125.246 0 .456-.052.63-.157a.987.987 0 0 0 .395-.457c.09-.205.136-.455.136-.75v-5.5h1.16v5.5c0 .496-.095.921-.286 1.275-.188.35-.455.619-.802.807-.347.184-.758.275-1.233.275Zm5.173.021c-.368 0-.701-.067-1-.203a1.666 1.666 0 0 1-.707-.603c-.174-.264-.26-.585-.26-.963 0-.33.062-.598.187-.807.128-.211.3-.379.515-.504.215-.125.455-.219.718-.281a7.56 7.56 0 0 1 .812-.146c.35-.038.633-.071.848-.099.215-.028.371-.071.468-.13.101-.062.151-.161.151-.297v-.026c0-.329-.093-.584-.281-.765-.184-.18-.458-.27-.822-.27-.378 0-.678.083-.9.25-.219.163-.37.348-.453.556l-1.067-.244c.129-.354.314-.638.557-.853.247-.219.528-.379.843-.479a3.29 3.29 0 0 1 .999-.151c.233 0 .479.028.739.083.26.052.505.151.734.297a1.6 1.6 0 0 1 .567.614c.146.267.219.612.219 1.035v3.861h-1.109v-.796h-.041c-.07.142-.179.285-.328.427-.146.142-.333.26-.562.354-.229.093-.505.14-.827.14Zm.244-.905c.316 0 .585-.061.807-.182.222-.125.392-.288.51-.489.118-.202.177-.415.177-.64v-.755a.635.635 0 0 1-.235.109 3.156 3.156 0 0 1-.39.089 21.72 21.72 0 0 1-.427.067c-.138.018-.255.032-.348.042a2.95 2.95 0 0 0-.599.146c-.18.062-.326.156-.437.281a.704.704 0 0 0-.161.484c0 .281.104.492.312.634.208.143.472.214.791.214Zm4.834-2.67v3.45h-1.124v-5.817h1.093v.957h.078a1.62 1.62 0 0 1 .619-.749c.281-.187.642-.281 1.083-.281.395 0 .74.083 1.035.25.299.163.529.407.692.733.167.326.25.731.25 1.213v3.694h-1.124v-3.559c0-.42-.111-.749-.333-.989-.222-.242-.524-.364-.905-.364-.261 0-.495.059-.703.177a1.231 1.231 0 0 0-.484.494c-.118.215-.177.479-.177.791Zm9.856 3.554c-.597 0-1.108-.156-1.535-.468-.423-.312-.748-.763-.973-1.353-.222-.593-.333-1.311-.333-2.154 0-.84.113-1.556.338-2.149.225-.597.55-1.051.973-1.364.427-.315.937-.473 1.53-.473.597 0 1.107.158 1.53.473.427.313.751.767.973 1.364.225.593.338 1.309.338 2.149 0 .843-.111 1.561-.333 2.154-.222.59-.545 1.041-.968 1.353-.423.312-.936.468-1.54.468Zm0-.999c.364 0 .671-.116.921-.348.25-.233.441-.571.572-1.015.132-.448.198-.985.198-1.613 0-.632-.066-1.169-.198-1.613-.131-.448-.322-.788-.572-1.02a1.291 1.291 0 0 0-.921-.354c-.538 0-.954.262-1.249.786-.291.52-.437 1.254-.437 2.201 0 .628.066 1.165.198 1.613.132.444.322.782.572 1.015.253.232.559.348.916.348Zm3.747.895v-.843l2.622-2.726c.278-.292.507-.548.687-.77.184-.226.321-.439.411-.641.094-.201.141-.414.141-.64 0-.26-.061-.483-.182-.671a1.208 1.208 0 0 0-.495-.432 1.614 1.614 0 0 0-.708-.151c-.277 0-.518.058-.723.172a1.188 1.188 0 0 0-.479.479 1.496 1.496 0 0 0-.166.723H393.4c0-.472.108-.884.323-1.238.219-.354.517-.628.895-.823a2.774 2.774 0 0 1 1.291-.296c.489 0 .919.097 1.29.291.371.195.661.458.869.791.208.33.312.703.312 1.119a2.3 2.3 0 0 1-.161.843c-.104.274-.29.581-.557.921-.264.337-.631.742-1.103 1.218l-1.54 1.613v.062h3.486v.999h-5.099Zm21.027 0h-1.243l2.789-7.753h1.353l2.784 7.753h-1.239l-2.196-6.343h-.062l-2.186 6.343Zm.209-3.033h4.022v.978h-4.022v-.978Zm6.051 5.208v-7.992h1.093v.947h.094a3.96 3.96 0 0 1 .286-.422c.125-.159.298-.298.52-.416.222-.121.512-.182.869-.182.469 0 .885.118 1.249.354.368.236.658.577.869 1.025.212.447.318.987.318 1.618 0 .625-.104 1.162-.313 1.613a2.437 2.437 0 0 1-.863 1.036 2.238 2.238 0 0 1-1.254.359c-.351 0-.639-.059-.864-.177a1.722 1.722 0 0 1-.526-.422 3.544 3.544 0 0 1-.291-.421h-.063v3.08h-1.124Zm2.623-3.023c.337 0 .618-.09.843-.27.226-.181.396-.425.51-.734.118-.312.177-.663.177-1.051 0-.385-.057-.73-.172-1.036a1.608 1.608 0 0 0-.51-.723c-.225-.177-.508-.265-.848-.265-.33 0-.607.085-.833.255a1.544 1.544 0 0 0-.515.707 3.002 3.002 0 0 0-.171 1.062c0 .406.059.763.177 1.072a1.6 1.6 0 0 0 .515.723c.229.173.504.26.827.26Zm3.497.848v-5.817h1.087v.931h.063a1.43 1.43 0 0 1 .562-.739 1.59 1.59 0 0 1 .916-.276c.069 0 .151.004.244.011.097.003.175.009.234.015v1.083a2.881 2.881 0 0 0-.593-.063c-.267 0-.506.058-.718.172a1.266 1.266 0 0 0-.494.463c-.118.194-.177.42-.177.677v3.543h-1.124Zm8.7.104c-.596 0-1.108-.156-1.535-.468-.423-.312-.747-.763-.973-1.353-.222-.593-.333-1.311-.333-2.154 0-.84.113-1.556.338-2.149.226-.597.55-1.051.973-1.364.427-.315.937-.473 1.53-.473.597 0 1.107.158 1.53.473.427.313.751.767.973 1.364.226.593.339 1.309.339 2.149 0 .843-.111 1.561-.333 2.154-.223.59-.545 1.041-.968 1.353-.424.312-.937.468-1.541.468Zm0-.999a1.3 1.3 0 0 0 .921-.348c.25-.233.441-.571.573-1.015.132-.448.198-.985.198-1.613 0-.632-.066-1.169-.198-1.613-.132-.448-.323-.788-.573-1.02a1.288 1.288 0 0 0-.921-.354c-.537 0-.954.262-1.249.786-.291.52-.437 1.254-.437 2.201 0 .628.066 1.165.198 1.613.132.444.323.782.573 1.015.253.232.558.348.915.348Zm3.591-.619v-.942l3.346-5.297h.744v1.395h-.479l-2.393 3.788v.062h4.594v.994h-5.812Zm3.663 1.514v-1.8l.011-.432v-5.521h1.113v7.753h-1.124Z"/><path fill="#5F646D" d="M404.593 429.167v.91h-3.174v-.91h3.174Zm-2.326-1.384h1.13v5.495c0 .267.055.463.166.588.111.121.29.182.536.182a2.15 2.15 0 0 0 .396-.042l.213.937a2.634 2.634 0 0 1-.781.119c-.503 0-.905-.14-1.207-.421-.302-.285-.453-.663-.453-1.134v-5.724Zm5.516 7.321c-.544 0-1.021-.125-1.431-.375a2.53 2.53 0 0 1-.947-1.051c-.222-.451-.333-.975-.333-1.571 0-.604.111-1.131.333-1.582a2.52 2.52 0 0 1 .947-1.056c.41-.25.887-.375 1.431-.375.548 0 1.025.125 1.431.375.406.249.722.601.947 1.056.226.451.338.978.338 1.582 0 .596-.112 1.12-.338 1.571a2.524 2.524 0 0 1-.947 1.051c-.406.25-.883.375-1.431.375Zm0-.952c.358 0 .652-.094.885-.281.232-.188.404-.436.515-.744a2.96 2.96 0 0 0 .172-1.02 2.99 2.99 0 0 0-.172-1.031 1.646 1.646 0 0 0-.515-.749c-.233-.187-.527-.281-.885-.281-.354 0-.647.094-.879.281a1.693 1.693 0 0 0-.515.749 2.966 2.966 0 0 0-.172 1.031c0 .367.057.707.172 1.02.114.308.286.556.515.744.232.187.525.281.879.281Z"/><g clip-path="url(#F)"><path fill="#6B707A" fill-rule="evenodd" d="M532.686 424.617a1.218 1.218 0 1 1 0 2.436 1.218 1.218 0 0 1 0-2.436Zm4.872 0a1.217 1.217 0 1 1 0 2.435 1.217 1.217 0 0 1 0-2.435Zm-4.872-4.872a1.218 1.218 0 1 1 0 2.436 1.218 1.218 0 0 1 0-2.436Zm4.872 0a1.217 1.217 0 1 1 0 2.435 1.217 1.217 0 0 1 0-2.435Zm-4.872-4.872a1.218 1.218 0 1 1 0 2.436 1.218 1.218 0 0 1 0-2.436Zm4.872 0a1.217 1.217 0 1 1 0 2.435 1.217 1.217 0 0 1 0-2.435Z" clip-rule="evenodd"/></g></g><g filter="url(#G)"><mask id="H" fill="#fff"><path d="M259 253.418a9.135 9.135 0 0 1 9.135-9.135h257.73a9.135 9.135 0 0 1 9.135 9.135v39.09a9.135 9.135 0 0 1-9.135 9.134h-257.73a9.135 9.135 0 0 1-9.135-9.134v-39.09Z"/></mask><path fill="#141415" d="M259 253.418a9.135 9.135 0 0 1 9.135-9.135h257.73a9.135 9.135 0 0 1 9.135 9.135v39.09a9.135 9.135 0 0 1-9.135 9.134h-257.73a9.135 9.135 0 0 1-9.135-9.134v-39.09Z" shape-rendering="crispEdges"/><path fill="#1D1E21" d="M259 253.418c0-5.597 4.537-10.135 10.135-10.135h255.73c5.598 0 10.135 4.538 10.135 10.135 0-4.493-4.09-8.135-9.135-8.135h-257.73c-5.045 0-9.135 3.642-9.135 8.135Zm276 48.224H259h276Zm-276 0v-57.359 57.359Zm276-57.359v57.359-57.359Z" mask="url(#H)"/><g filter="url(#I)"><g clip-path="url(#J)"><rect width="2.284" height="30.449" x="269.657" y="257.738" fill="#fff" fill-opacity=".1" rx="1.142"/><path fill="url(#K)" d="M269.657 257.738h2.284v30.449h-2.284z"/></g></g><path fill="#fff" d="M281.677 267.939v-8.307h3.117c.639 0 1.174.119 1.606.357.435.238.763.565.986.981.223.417.335.889.335 1.416a2.92 2.92 0 0 1-.34 1.422 2.39 2.39 0 0 1-.993.976c-.438.234-.977.351-1.616.351h-2.063v-1.238h1.856c.376 0 .682-.063.92-.189.242-.13.418-.309.53-.535.115-.231.173-.493.173-.787a1.68 1.68 0 0 0-.173-.78 1.146 1.146 0 0 0-.53-.524c-.238-.127-.546-.19-.925-.19h-1.377v7.047h-1.506Zm6.864 0v-6.233h1.421v1.048h.067c.112-.364.307-.643.586-.836.278-.197.596-.295.953-.295.078 0 .167.003.268.011.104.007.189.016.256.028v1.349a1.469 1.469 0 0 0-.295-.056 3.47 3.47 0 0 0-.385-.022c-.271 0-.513.057-.725.173a1.308 1.308 0 0 0-.502.474c-.119.2-.178.434-.178.702v3.657h-1.466Zm6.562.123c-.61 0-1.138-.134-1.584-.401a2.72 2.72 0 0 1-1.037-1.127c-.241-.483-.362-1.044-.362-1.683 0-.643.121-1.206.362-1.69a2.706 2.706 0 0 1 1.037-1.131c.446-.268.974-.402 1.584-.402.609 0 1.137.134 1.583.402a2.7 2.7 0 0 1 1.037 1.131c.245.484.368 1.047.368 1.69 0 .639-.123 1.2-.368 1.683a2.713 2.713 0 0 1-1.037 1.127c-.446.267-.974.401-1.583.401Zm0-1.182c.338 0 .617-.089.836-.267.219-.183.383-.428.491-.736.111-.309.167-.651.167-1.026 0-.383-.056-.729-.167-1.037a1.599 1.599 0 0 0-.491-.731c-.219-.182-.498-.273-.836-.273-.331 0-.608.091-.831.273-.223.179-.39.422-.502.731a3.122 3.122 0 0 0-.161 1.037c0 .375.053.717.161 1.026.112.308.279.553.502.736.223.178.5.267.831.267Zm6.902-5.174v1.138h-3.574v-1.138h3.574Zm-2.699-1.483h1.467v5.843c0 .245.054.428.161.547.108.115.279.172.513.172.064 0 .134-.005.212-.016.078-.012.149-.025.212-.039l.251 1.148a3.001 3.001 0 0 1-.474.106c-.16.026-.32.039-.479.039-.58 0-1.036-.152-1.366-.457-.331-.309-.497-.729-.497-1.26v-6.083Zm6.156 7.839c-.61 0-1.138-.134-1.584-.401a2.72 2.72 0 0 1-1.037-1.127c-.241-.483-.362-1.044-.362-1.683 0-.643.121-1.206.362-1.69a2.706 2.706 0 0 1 1.037-1.131c.446-.268.974-.402 1.584-.402.609 0 1.137.134 1.583.402a2.7 2.7 0 0 1 1.037 1.131c.245.484.368 1.047.368 1.69 0 .639-.123 1.2-.368 1.683a2.713 2.713 0 0 1-1.037 1.127c-.446.267-.974.401-1.583.401Zm0-1.182c.338 0 .617-.089.836-.267.219-.183.383-.428.491-.736.111-.309.167-.651.167-1.026 0-.383-.056-.729-.167-1.037a1.599 1.599 0 0 0-.491-.731c-.219-.182-.498-.273-.836-.273-.331 0-.608.091-.831.273-.223.179-.39.422-.502.731a3.122 3.122 0 0 0-.162 1.037c0 .375.054.717.162 1.026.112.308.279.553.502.736.223.178.5.267.831.267Zm6.902-5.174v1.138h-3.574v-1.138h3.574Zm-2.699-1.483h1.467v5.843c0 .245.054.428.161.547.108.115.279.172.513.172.064 0 .134-.005.212-.016.078-.012.149-.025.212-.039l.251 1.148a3.001 3.001 0 0 1-.474.106c-.16.026-.32.039-.479.039-.58 0-1.036-.152-1.366-.457-.331-.309-.497-.729-.497-1.26v-6.083Zm4.422 10.047a2.597 2.597 0 0 1-.558-.045 2.127 2.127 0 0 1-.407-.106l.346-1.143.072.023c.298.078.55.083.759.016.211-.066.381-.269.507-.607l.123-.335-2.253-6.367h1.556l1.432 4.711h.067l1.439-4.711h1.566l-2.497 6.986a2.811 2.811 0 0 1-.457.848c-.19.237-.424.418-.703.54-.279.127-.61.19-.992.19Zm5.24 0v-8.564h1.439v1.032h.089c.074-.149.18-.309.318-.48.137-.174.323-.323.557-.446.238-.122.541-.184.909-.184.48 0 .913.123 1.299.368.387.245.693.606.92 1.082.231.476.346 1.061.346 1.756 0 .684-.112 1.266-.335 1.745-.223.48-.529.846-.92 1.098a2.375 2.375 0 0 1-1.315.374c-.353 0-.649-.06-.887-.178a1.934 1.934 0 0 1-.569-.435 2.5 2.5 0 0 1-.323-.485h-.061v3.317h-1.467Zm2.905-3.423c.324 0 .593-.088.809-.262.219-.175.384-.415.496-.72.111-.304.167-.65.167-1.037 0-.386-.056-.73-.167-1.031a1.578 1.578 0 0 0-.491-.708c-.215-.171-.487-.257-.814-.257-.316 0-.583.082-.803.246a1.538 1.538 0 0 0-.496.697 3.006 3.006 0 0 0-.167 1.053c0 .402.056.755.167 1.06.115.301.283.537.502.708.219.167.485.251.797.251Zm3.786 1.092v-6.233h1.466v6.233h-1.466Zm.736-7.108a.851.851 0 0 1-.602-.234.74.74 0 0 1-.251-.563c0-.223.083-.413.251-.569a.851.851 0 0 1 .602-.234c.23 0 .429.078.596.234a.74.74 0 0 1 .251.563.747.747 0 0 1-.251.569.844.844 0 0 1-.596.234Zm3.284 3.462v3.646h-1.467v-6.233h1.439v1.065h.072c.141-.349.363-.626.664-.831.304-.208.691-.312 1.159-.312.432 0 .807.091 1.127.273.319.183.566.45.741.803.179.35.268.773.268 1.271v3.964h-1.467v-3.735c0-.416-.107-.742-.323-.976-.216-.238-.513-.357-.892-.357-.256 0-.485.056-.686.168a1.196 1.196 0 0 0-.468.485c-.112.208-.167.464-.167.769Zm7.788 6.111c-.791 0-1.414-.155-1.867-.463-.454-.305-.746-.675-.876-1.109l1.316-.324c.06.123.147.244.262.363.115.122.27.223.463.301.193.081.437.122.73.122.417 0 .76-.102 1.032-.306.275-.201.412-.53.412-.987v-1.177h-.083a1.96 1.96 0 0 1-.324.463c-.145.156-.336.29-.574.402-.234.107-.532.161-.892.161-.476 0-.909-.113-1.299-.34-.387-.227-.695-.565-.926-1.015-.226-.449-.34-1.012-.34-1.689 0-.684.114-1.262.34-1.734.231-.472.541-.831.931-1.076a2.408 2.408 0 0 1 1.305-.368c.364 0 .665.062.903.184.238.123.428.272.569.446.141.171.251.331.329.48h.078v-1.032h1.433v6.334c0 .531-.127.972-.379 1.321-.253.35-.601.61-1.043.781-.438.174-.938.262-1.5.262Zm.012-3.708c.468 0 .828-.167 1.081-.502.257-.338.385-.804.385-1.399 0-.394-.056-.738-.167-1.031a1.485 1.485 0 0 0-.497-.686 1.301 1.301 0 0 0-.802-.246c-.328 0-.601.086-.82.257a1.559 1.559 0 0 0-.496.702 2.9 2.9 0 0 0-.162 1.004c0 .379.056.712.167.998.112.286.277.509.497.669.223.156.494.234.814.234Zm8.87 1.366c-.565 0-1.054-.102-1.466-.307a2.293 2.293 0 0 1-.943-.83 2.218 2.218 0 0 1-.329-1.193 1.8 1.8 0 0 1 .207-.876 2.69 2.69 0 0 1 .574-.708c.245-.219.522-.44.831-.663l1.477-1.004a2.04 2.04 0 0 0 .485-.451.884.884 0 0 0 .173-.547c0-.178-.074-.347-.223-.507-.149-.16-.355-.24-.619-.24a.868.868 0 0 0-.886.87c0 .178.05.362.15.552.101.186.232.379.396.58.167.2.344.414.53.641l3.897 4.56h-1.595l-3.233-3.702a39.054 39.054 0 0 1-.697-.836 4.676 4.676 0 0 1-.547-.853 2.221 2.221 0 0 1-.212-.964c0-.394.092-.746.274-1.054.182-.309.435-.55.758-.725a2.354 2.354 0 0 1 1.143-.268c.438 0 .816.088 1.132.262.316.171.557.4.724.686.171.283.257.595.257.937 0 .39-.099.74-.296 1.048a3.066 3.066 0 0 1-.808.842l-1.684 1.227c-.275.204-.472.408-.591.613-.115.201-.173.373-.173.518 0 .22.056.418.168.597.111.178.267.321.468.429.201.108.435.162.702.162.302 0 .595-.067.881-.201a2.6 2.6 0 0 0 .786-.58 2.81 2.81 0 0 0 .569-.892 3.07 3.07 0 0 0 .212-1.159h1.266c0 .524-.058.981-.173 1.371a3.402 3.402 0 0 1-.452.981 3.048 3.048 0 0 1-.58.636c-.067.048-.13.095-.189.139-.06.045-.121.09-.184.134a2.814 2.814 0 0 1-1.032.591c-.39.123-.773.184-1.148.184Zm7.136-8.43h1.846l2.464 6.016h.095l2.47-6.016h1.867v8.307h-1.477v-5.709h-.067l-2.308 5.682h-1.082l-2.28-5.693h-.078v5.72h-1.45v-8.307Zm9.885 8.307v-6.233h1.467v6.233h-1.467Zm.736-7.108a.851.851 0 0 1-.602-.234.744.744 0 0 1-.251-.563.75.75 0 0 1 .251-.569.851.851 0 0 1 .602-.234c.231 0 .43.078.597.234a.744.744 0 0 1 .251.563.75.75 0 0 1-.251.569.845.845 0 0 1-.597.234Zm4.533 7.231c-.621 0-1.154-.136-1.6-.407a2.716 2.716 0 0 1-1.026-1.137c-.238-.483-.357-1.039-.357-1.667 0-.636.121-1.195.363-1.678a2.704 2.704 0 0 1 1.031-1.132c.446-.275.972-.413 1.578-.413.509 0 .959.093 1.349.279.39.186.701.448.931.786.234.335.368.727.402 1.176h-1.405c-.038-.2-.11-.381-.218-.54a1.148 1.148 0 0 0-.424-.379 1.265 1.265 0 0 0-.613-.14c-.301 0-.565.082-.792.245a1.58 1.58 0 0 0-.524.692c-.126.301-.189.661-.189 1.081 0 .424.061.79.184 1.099.122.305.297.541.524.708.227.163.492.245.797.245.323 0 .597-.095.82-.284.226-.19.371-.452.435-.786h1.405a2.388 2.388 0 0 1-.391 1.17 2.339 2.339 0 0 1-.92.798c-.386.189-.84.284-1.36.284Zm3.462-.123v-6.233h1.422v1.048h.067a1.52 1.52 0 0 1 .585-.836c.279-.197.597-.295.954-.295.078 0 .167.003.267.011.104.007.19.016.257.028v1.349a1.467 1.467 0 0 0-.296-.056 3.452 3.452 0 0 0-.384-.022c-.272 0-.513.057-.725.173a1.308 1.308 0 0 0-.502.474c-.119.2-.178.434-.178.702v3.657h-1.467Zm6.562.123c-.609 0-1.137-.134-1.583-.401a2.713 2.713 0 0 1-1.037-1.127c-.242-.483-.362-1.044-.362-1.683 0-.643.12-1.206.362-1.69a2.7 2.7 0 0 1 1.037-1.131c.446-.268.974-.402 1.583-.402.61 0 1.138.134 1.584.402.446.267.791.644 1.037 1.131.245.484.368 1.047.368 1.69 0 .639-.123 1.2-.368 1.683a2.72 2.72 0 0 1-1.037 1.127c-.446.267-.974.401-1.584.401Zm0-1.182c.339 0 .617-.089.837-.267.219-.183.383-.428.49-.736.112-.309.168-.651.168-1.026a3.02 3.02 0 0 0-.168-1.037 1.59 1.59 0 0 0-.49-.731c-.22-.182-.498-.273-.837-.273-.33 0-.607.091-.83.273a1.609 1.609 0 0 0-.502.731 3.122 3.122 0 0 0-.162 1.037c0 .375.054.717.162 1.026.111.308.279.553.502.736.223.178.5.267.83.267Zm3.797 1.059v-6.233h1.467v6.233h-1.467Zm.736-7.108a.851.851 0 0 1-.602-.234.744.744 0 0 1-.251-.563.75.75 0 0 1 .251-.569.851.851 0 0 1 .602-.234c.231 0 .429.078.597.234a.744.744 0 0 1 .251.563.75.75 0 0 1-.251.569.846.846 0 0 1-.597.234Zm3.284 3.462v3.646h-1.466v-6.233h1.438v1.065h.073c.141-.349.362-.626.663-.831.305-.208.691-.312 1.16-.312.431 0 .806.091 1.126.273.32.183.567.45.741.803.179.35.268.773.268 1.271v3.964h-1.466v-3.735c0-.416-.108-.742-.324-.976-.215-.238-.513-.357-.892-.357a1.38 1.38 0 0 0-.685.168 1.199 1.199 0 0 0-.469.485c-.111.208-.167.464-.167.769Zm8.196-2.587v1.138h-3.574v-1.138h3.574Zm-2.699-1.483h1.467v5.843c0 .245.053.428.161.547.108.115.279.172.513.172.063 0 .134-.005.212-.016.078-.012.149-.025.212-.039l.251 1.148a3.001 3.001 0 0 1-.474.106c-.16.026-.32.039-.48.039-.579 0-1.035-.152-1.366-.457-.33-.309-.496-.729-.496-1.26v-6.083Zm6.2 7.839c-.624 0-1.163-.13-1.617-.39a2.668 2.668 0 0 1-1.048-1.115c-.242-.48-.362-1.045-.362-1.695 0-.643.12-1.206.362-1.689a2.743 2.743 0 0 1 1.02-1.138c.439-.271.956-.407 1.55-.407.383 0 .745.062 1.087.184.346.123.651.312.915.569.267.256.477.583.63.981.152.394.228.864.228 1.411v.457h-5.107v-.987h4.377l-.686.29c0-.353-.054-.66-.161-.92a1.367 1.367 0 0 0-.48-.619c-.212-.149-.476-.223-.792-.223a1.42 1.42 0 0 0-.808.223c-.223.149-.392.35-.507.602a1.958 1.958 0 0 0-.173.837v.685c0 .379.065.705.195.976.134.268.32.472.557.613.242.142.523.212.842.212.208 0 .398-.03.569-.089a1.18 1.18 0 0 0 .446-.268c.126-.122.223-.273.29-.451l1.371.161a2.185 2.185 0 0 1-.496.948 2.374 2.374 0 0 1-.92.625 3.508 3.508 0 0 1-1.282.217Zm3.563-.123v-6.233h1.421v1.048h.067c.112-.364.307-.643.586-.836.278-.197.596-.295.953-.295.078 0 .167.003.268.011.104.007.189.016.256.028v1.349a1.469 1.469 0 0 0-.295-.056 3.456 3.456 0 0 0-.385-.022c-.271 0-.513.057-.725.173a1.308 1.308 0 0 0-.502.474c-.119.2-.178.434-.178.702v3.657h-1.466Zm5.776.129c-.398 0-.755-.071-1.071-.212a1.734 1.734 0 0 1-.747-.636c-.182-.279-.273-.622-.273-1.031 0-.35.065-.64.195-.87.13-.23.307-.414.53-.552a2.73 2.73 0 0 1 .764-.312c.282-.074.574-.126.875-.156.368-.041.665-.076.892-.106.227-.03.39-.078.491-.145.104-.067.156-.171.156-.312v-.028c0-.301-.09-.535-.268-.703-.178-.167-.439-.251-.781-.251-.36 0-.646.078-.858.235-.208.156-.349.34-.424.552l-1.366-.196c.108-.379.286-.695.535-.947.249-.257.552-.448.909-.575.361-.13.758-.195 1.193-.195.298 0 .595.036.892.106.298.067.571.182.82.346.249.163.448.383.597.658.148.275.223.619.223 1.031v4.17h-1.411v-.858h-.045a1.795 1.795 0 0 1-.981.847c-.238.093-.52.14-.847.14Zm.373-1.082c.298 0 .554-.058.77-.173.215-.119.382-.275.501-.468.119-.197.179-.411.179-.641v-.731a.76.76 0 0 1-.234.106c-.108.03-.231.058-.368.084a9.305 9.305 0 0 1-.747.111c-.22.03-.417.08-.591.151a.991.991 0 0 0-.407.279.69.69 0 0 0-.151.463c0 .271.099.475.296.613.197.137.447.206.752.206Zm6.713 1.076c-.621 0-1.154-.136-1.6-.407a2.716 2.716 0 0 1-1.026-1.137c-.238-.483-.357-1.039-.357-1.667 0-.636.121-1.195.363-1.678a2.704 2.704 0 0 1 1.031-1.132c.446-.275.972-.413 1.578-.413.509 0 .959.093 1.349.279a2.297 2.297 0 0 1 1.332 1.962h-1.404c-.038-.2-.11-.381-.218-.54a1.148 1.148 0 0 0-.424-.379 1.265 1.265 0 0 0-.613-.14c-.301 0-.565.082-.792.245a1.58 1.58 0 0 0-.524.692c-.126.301-.189.661-.189 1.081 0 .424.061.79.184 1.099.122.305.297.541.524.708.227.163.492.245.797.245.323 0 .597-.095.82-.284.226-.19.371-.452.435-.786h1.404a2.377 2.377 0 0 1-.39 1.17 2.346 2.346 0 0 1-.92.798c-.386.189-.84.284-1.36.284Zm6.568-6.356v1.138h-3.574v-1.138h3.574Zm-2.699-1.483h1.466v5.843c0 .245.054.428.162.547.108.115.279.172.513.172.063 0 .134-.005.212-.016.078-.012.149-.025.212-.039l.251 1.148a3.001 3.001 0 0 1-.474.106c-.16.026-.32.039-.48.039-.579 0-1.035-.152-1.366-.457-.33-.309-.496-.729-.496-1.26v-6.083Zm3.507 7.716v-6.233h1.466v6.233h-1.466Zm.736-7.108a.851.851 0 0 1-.602-.234.744.744 0 0 1-.251-.563.75.75 0 0 1 .251-.569.851.851 0 0 1 .602-.234c.23 0 .429.078.597.234.167.156.25.344.25.563a.75.75 0 0 1-.25.569.848.848 0 0 1-.597.234Zm4.533 7.231c-.61 0-1.138-.134-1.584-.401a2.72 2.72 0 0 1-1.037-1.127c-.241-.483-.362-1.044-.362-1.683 0-.643.121-1.206.362-1.69a2.706 2.706 0 0 1 1.037-1.131c.446-.268.974-.402 1.584-.402.609 0 1.137.134 1.583.402a2.7 2.7 0 0 1 1.037 1.131c.245.484.368 1.047.368 1.69 0 .639-.123 1.2-.368 1.683a2.713 2.713 0 0 1-1.037 1.127c-.446.267-.974.401-1.583.401Zm0-1.182c.338 0 .617-.089.836-.267.219-.183.383-.428.491-.736.111-.309.167-.651.167-1.026 0-.383-.056-.729-.167-1.037a1.599 1.599 0 0 0-.491-.731c-.219-.182-.498-.273-.836-.273-.331 0-.608.091-.831.273-.223.179-.39.422-.502.731a3.122 3.122 0 0 0-.161 1.037c0 .375.053.717.161 1.026.112.308.279.553.502.736.223.178.5.267.831.267Zm5.263-2.587v3.646h-1.466v-6.233h1.438v1.065h.072c.142-.349.363-.626.664-.831.305-.208.691-.312 1.16-.312.431 0 .806.091 1.126.273.319.183.567.45.741.803.179.35.268.773.268 1.271v3.964h-1.466v-3.735c0-.416-.108-.742-.324-.976-.215-.238-.513-.357-.892-.357-.256 0-.485.056-.686.168a1.196 1.196 0 0 0-.468.485c-.111.208-.167.464-.167.769Z"/><path fill="#9297A0" d="M281.7 279.231h1.425l2.467 6.026h.088l2.472-6.026h1.447v7.753h-1.145v-5.609h-.073l-2.295 5.599h-.926l-2.269-5.604h-.073v5.614H281.7v-7.753Zm10.75 7.878c-.367 0-.7-.067-.999-.203a1.666 1.666 0 0 1-.707-.603c-.174-.264-.261-.585-.261-.963 0-.33.063-.598.188-.807.128-.211.3-.379.515-.504.215-.125.454-.219.718-.281a7.56 7.56 0 0 1 .812-.146c.35-.038.633-.071.848-.099.215-.028.371-.071.468-.13.101-.062.151-.161.151-.297v-.026c0-.329-.094-.584-.281-.765-.184-.18-.458-.27-.822-.27-.378 0-.678.083-.9.25-.219.163-.37.348-.453.556l-1.067-.244c.129-.354.314-.638.557-.853.246-.219.527-.379.843-.479a3.29 3.29 0 0 1 .999-.151c.233 0 .479.028.739.083.26.052.505.151.734.297a1.6 1.6 0 0 1 .567.614c.146.267.219.612.219 1.035v3.861h-1.109v-.796h-.041c-.07.142-.179.285-.328.427-.146.142-.333.26-.562.354a2.2 2.2 0 0 1-.828.14Zm.245-.905c.316 0 .584-.061.806-.182.222-.125.392-.288.51-.489.118-.202.177-.415.177-.64v-.755a.621.621 0 0 1-.234.109 3.156 3.156 0 0 1-.39.089 21.72 21.72 0 0 1-.427.067c-.139.018-.255.032-.348.042a2.95 2.95 0 0 0-.599.146c-.18.062-.326.156-.437.281a.704.704 0 0 0-.161.484c0 .281.104.492.312.634.208.143.472.214.791.214Zm4.21 2.955a2.092 2.092 0 0 1-.776-.124l.276-.921.078.02c.288.073.531.068.729-.015.201-.08.369-.304.504-.672l.141-.385-2.123-5.895h1.212l1.468 4.516h.062l1.473-4.516h1.212l-2.393 6.588a2.625 2.625 0 0 1-.422.77c-.17.211-.375.369-.614.473a1.972 1.972 0 0 1-.827.161Zm9.928-2.071c-.597 0-1.108-.156-1.535-.468-.423-.312-.747-.763-.973-1.353-.222-.593-.333-1.311-.333-2.154 0-.84.113-1.556.338-2.149.226-.597.55-1.051.973-1.364.427-.315.937-.473 1.53-.473.597 0 1.107.158 1.53.473.427.313.751.767.973 1.364.226.593.338 1.309.338 2.149 0 .843-.111 1.561-.333 2.154-.222.59-.544 1.041-.968 1.353-.423.312-.936.468-1.54.468Zm0-.999c.364 0 .671-.116.921-.348.25-.233.441-.571.573-1.015.131-.448.197-.985.197-1.613 0-.632-.066-1.169-.197-1.613-.132-.448-.323-.788-.573-1.02a1.291 1.291 0 0 0-.921-.354c-.538 0-.954.262-1.249.786-.291.52-.437 1.254-.437 2.201 0 .628.066 1.165.198 1.613.132.444.323.782.572 1.015.254.232.559.348.916.348Zm6.546-6.858v7.753h-1.155v-6.577h-.052l-1.842 1.212v-1.124l1.925-1.264h1.124Zm16.085 7.753h-1.244l2.789-7.753h1.353l2.784 7.753h-1.238l-2.196-6.343h-.063l-2.185 6.343Zm.208-3.033h4.022v.978h-4.022v-.978Zm9.736.629v-3.413h1.124v5.817h-1.103v-1.009h-.063a1.894 1.894 0 0 1-.645.775c-.291.208-.656.311-1.093.307-.374 0-.706-.081-.994-.244a1.69 1.69 0 0 1-.671-.734c-.159-.326-.239-.73-.239-1.213v-3.699h1.124v3.569c0 .392.111.706.333.942.222.236.508.352.858.349.212 0 .422-.052.63-.156a1.31 1.31 0 0 0 .526-.479c.142-.215.213-.486.213-.812Zm4.631 4.704c-.694 0-1.24-.13-1.639-.39s-.675-.569-.827-.926l.967-.401c.07.111.162.229.276.354.118.125.276.231.474.317.198.087.453.131.765.131.426 0 .78-.105 1.061-.313.281-.204.422-.534.422-.988v-1.14h-.078a2.368 2.368 0 0 1-.286.411 1.674 1.674 0 0 1-.526.39c-.222.111-.512.167-.869.167a2.41 2.41 0 0 1-1.239-.323 2.345 2.345 0 0 1-.874-.957c-.215-.423-.322-.944-.322-1.561 0-.618.105-1.147.317-1.587.215-.444.507-.784.874-1.02a2.273 2.273 0 0 1 1.254-.354c.361 0 .653.061.875.182.225.118.4.257.525.416.125.16.222.3.292.422h.083v-.947h1.098v5.947c0 .5-.116.909-.349 1.229a2.007 2.007 0 0 1-.937.707 3.616 3.616 0 0 1-1.337.234Zm-.01-3.33c.489 0 .864-.168 1.124-.505.263-.34.395-.81.395-1.41 0-.392-.057-.735-.172-1.03a1.507 1.507 0 0 0-.509-.697c-.226-.17-.505-.255-.838-.255-.34 0-.625.088-.854.265a1.586 1.586 0 0 0-.51.713 2.793 2.793 0 0 0-.171 1.004c0 .378.057.713.171 1.004.115.288.287.512.516.672.232.159.515.239.848.239Zm6.067 1.03v-.843l2.623-2.726c.277-.292.506-.548.687-.77.184-.226.321-.439.411-.641.093-.201.14-.414.14-.64 0-.26-.06-.483-.182-.671a1.2 1.2 0 0 0-.494-.432 1.614 1.614 0 0 0-.708-.151c-.277 0-.519.058-.723.172a1.182 1.182 0 0 0-.479.479 1.496 1.496 0 0 0-.166.723h-1.114c0-.472.107-.884.323-1.238.218-.354.516-.628.895-.823a2.767 2.767 0 0 1 1.29-.296c.489 0 .919.097 1.291.291.371.195.66.458.869.791.208.33.312.703.312 1.119a2.3 2.3 0 0 1-.161.843c-.105.274-.29.581-.557.921-.264.337-.632.742-1.103 1.218l-1.541 1.613v.062h3.487v.999h-5.1Zm6.088 0v-.843l2.623-2.726c.278-.292.507-.548.687-.77.184-.226.321-.439.411-.641.094-.201.141-.414.141-.64 0-.26-.061-.483-.183-.671a1.2 1.2 0 0 0-.494-.432 1.614 1.614 0 0 0-.708-.151c-.277 0-.518.058-.723.172a1.182 1.182 0 0 0-.479.479 1.496 1.496 0 0 0-.166.723h-1.114c0-.472.108-.884.323-1.238.218-.354.517-.628.895-.823a2.77 2.77 0 0 1 1.29-.296c.489 0 .92.097 1.291.291.371.195.661.458.869.791.208.33.312.703.312 1.119a2.3 2.3 0 0 1-.161.843c-.104.274-.29.581-.557.921-.264.337-.631.742-1.103 1.218l-1.54 1.613v.062h3.486v.999h-5.1Z"/><path fill="#5F646D" d="M319.624 281.167v.91h-3.175v-.91h3.175Zm-2.326-1.384h1.129v5.495c0 .267.055.463.166.588.111.121.29.182.536.182a2.177 2.177 0 0 0 .396-.042l.213.937a2.653 2.653 0 0 1-.78.119c-.503 0-.906-.14-1.208-.421-.301-.285-.452-.663-.452-1.134v-5.724Zm5.516 7.321c-.545 0-1.022-.125-1.431-.375a2.533 2.533 0 0 1-.948-1.051c-.222-.451-.333-.975-.333-1.571 0-.604.111-1.131.333-1.582.226-.455.542-.807.948-1.056.409-.25.886-.375 1.431-.375.548 0 1.025.125 1.431.375.405.249.721.601.947 1.056.225.451.338.978.338 1.582 0 .596-.113 1.12-.338 1.571a2.537 2.537 0 0 1-.947 1.051c-.406.25-.883.375-1.431.375Zm0-.952c.357 0 .652-.094.884-.281a1.65 1.65 0 0 0 .515-.744c.115-.313.172-.653.172-1.02 0-.375-.057-.718-.172-1.031a1.638 1.638 0 0 0-.515-.749c-.232-.187-.527-.281-.884-.281-.354 0-.647.094-.88.281a1.693 1.693 0 0 0-.515.749 2.966 2.966 0 0 0-.172 1.031c0 .367.057.707.172 1.02.114.308.286.556.515.744.233.187.526.281.88.281Z"/><g clip-path="url(#L)"><path fill="#6B707A" fill-rule="evenodd" d="M513.686 276.617a1.218 1.218 0 1 1 0 2.436 1.218 1.218 0 0 1 0-2.436Zm4.872 0a1.217 1.217 0 1 1 0 2.435 1.217 1.217 0 0 1 0-2.435Zm-4.872-4.872a1.218 1.218 0 1 1 0 2.436 1.218 1.218 0 0 1 0-2.436Zm4.872 0a1.217 1.217 0 1 1 0 2.435 1.217 1.217 0 0 1 0-2.435Zm-4.872-4.872a1.218 1.218 0 1 1 0 2.436 1.218 1.218 0 0 1 0-2.436Zm4.872 0a1.217 1.217 0 1 1 0 2.435 1.217 1.217 0 0 1 0-2.435Z" clip-rule="evenodd"/></g></g><mask id="M" fill="#fff"><path d="M259 179.418a9.135 9.135 0 0 1 9.135-9.135h257.73a9.135 9.135 0 0 1 9.135 9.135v38.731a9.134 9.134 0 0 1-9.135 9.134h-257.73a9.134 9.134 0 0 1-9.135-9.134v-38.731Z"/></mask><path fill="#111112" d="M259 179.418a9.135 9.135 0 0 1 9.135-9.135h257.73a9.135 9.135 0 0 1 9.135 9.135v38.731a9.134 9.134 0 0 1-9.135 9.134h-257.73a9.134 9.134 0 0 1-9.135-9.134v-38.731Z"/><path fill="#1D1E21" d="M259 179.418c0-5.597 4.537-10.135 10.135-10.135h255.73c5.598 0 10.135 4.538 10.135 10.135 0-4.493-4.09-8.135-9.135-8.135h-257.73c-5.045 0-9.135 3.642-9.135 8.135Zm276 47.865H259h276Zm-276 0v-57 57Zm276-57v57-57Z" mask="url(#M)"/><mask id="N" fill="#fff"><path d="M62 253.418a9.135 9.135 0 0 1 9.135-9.135h167.73a9.135 9.135 0 0 1 9.135 9.135v38.731a9.134 9.134 0 0 1-9.135 9.134H71.135A9.134 9.134 0 0 1 62 292.149v-38.731Z"/></mask><path fill="#111112" d="M62 253.418a9.135 9.135 0 0 1 9.135-9.135h167.73a9.135 9.135 0 0 1 9.135 9.135v38.731a9.134 9.134 0 0 1-9.135 9.134H71.135A9.134 9.134 0 0 1 62 292.149v-38.731Z"/><path fill="#1D1E21" d="M62 253.418c0-5.597 4.537-10.135 10.135-10.135h165.73c5.598 0 10.135 4.538 10.135 10.135 0-4.493-4.09-8.135-9.135-8.135H71.135c-5.045 0-9.135 3.642-9.135 8.135Zm186 47.865H62h186Zm-186 0v-57 57Zm186-57v57-57Z" mask="url(#N)"/><mask id="O" fill="#fff"><path d="M380 327.418a9.135 9.135 0 0 1 9.135-9.135h155.73a9.135 9.135 0 0 1 9.135 9.135v38.731a9.134 9.134 0 0 1-9.135 9.134h-155.73a9.134 9.134 0 0 1-9.135-9.134v-38.731Z"/></mask><path fill="#111112" d="M380 327.418a9.135 9.135 0 0 1 9.135-9.135h155.73a9.135 9.135 0 0 1 9.135 9.135v38.731a9.134 9.134 0 0 1-9.135 9.134h-155.73a9.134 9.134 0 0 1-9.135-9.134v-38.731Z"/><path fill="#1D1E21" d="M380 327.418c0-5.597 4.537-10.135 10.135-10.135h153.73c5.598 0 10.135 4.538 10.135 10.135 0-4.493-4.09-8.135-9.135-8.135h-155.73c-5.045 0-9.135 3.642-9.135 8.135Zm174 47.865H380h174Zm-174 0v-57 57Zm174-57v57-57Z" mask="url(#O)"/><mask id="P" fill="#fff"><path d="M62 401.418a9.135 9.135 0 0 1 9.135-9.135h253.73a9.135 9.135 0 0 1 9.135 9.135v38.731a9.134 9.134 0 0 1-9.135 9.134H71.135A9.134 9.134 0 0 1 62 440.149v-38.731Z"/></mask><path fill="#111112" d="M62 401.418a9.135 9.135 0 0 1 9.135-9.135h253.73a9.135 9.135 0 0 1 9.135 9.135v38.731a9.134 9.134 0 0 1-9.135 9.134H71.135A9.134 9.134 0 0 1 62 440.149v-38.731Z"/><path fill="#1D1E21" d="M62 401.418c0-5.597 4.537-10.135 10.135-10.135h251.73c5.598 0 10.135 4.538 10.135 10.135 0-4.493-4.09-8.135-9.135-8.135H71.135c-5.045 0-9.135 3.642-9.135 8.135Zm272 47.865H62h272Zm-272 0v-57 57Zm272-57v57-57Z" mask="url(#P)"/></g><path fill="url(#Q)" d="M20 31.463h567v443.5H20z"/><path fill="url(#R)" d="M20 414.873h567v97.705H20z"/><defs><linearGradient id="a" x1="9.617" x2="303.5" y1="19.619" y2="493.222" gradientUnits="userSpaceOnUse"><stop stop-color="#1D1E21"/><stop offset=".748" stop-color="#1D1E21" stop-opacity="0"/></linearGradient><linearGradient id="f" x1="63.833" x2="63.833" y1="156.463" y2="444.463" gradientUnits="userSpaceOnUse"><stop offset=".65" stop-color="#1D1E21"/><stop offset="1" stop-color="#1D1E21" stop-opacity="0"/></linearGradient><linearGradient id="g" x1="123.5" x2="123.5" y1="156.463" y2="444.463" gradientUnits="userSpaceOnUse"><stop offset=".65" stop-color="#1D1E21"/><stop offset="1" stop-color="#1D1E21" stop-opacity="0"/></linearGradient><linearGradient id="h" x1="183.166" x2="183.166" y1="156.463" y2="444.463" gradientUnits="userSpaceOnUse"><stop offset=".65" stop-color="#1D1E21"/><stop offset="1" stop-color="#1D1E21" stop-opacity="0"/></linearGradient><linearGradient id="i" x1="242.833" x2="242.833" y1="156.463" y2="444.463" gradientUnits="userSpaceOnUse"><stop offset=".65" stop-color="#1D1E21"/><stop offset="1" stop-color="#1D1E21" stop-opacity="0"/></linearGradient><linearGradient id="j" x1="302.5" x2="302.5" y1="156.463" y2="444.463" gradientUnits="userSpaceOnUse"><stop offset=".65" stop-color="#1D1E21"/><stop offset="1" stop-color="#1D1E21" stop-opacity="0"/></linearGradient><linearGradient id="k" x1="362.166" x2="362.166" y1="156.463" y2="444.463" gradientUnits="userSpaceOnUse"><stop offset=".65" stop-color="#1D1E21"/><stop offset="1" stop-color="#1D1E21" stop-opacity="0"/></linearGradient><linearGradient id="l" x1="421.833" x2="421.833" y1="156.463" y2="444.463" gradientUnits="userSpaceOnUse"><stop offset=".65" stop-color="#1D1E21"/><stop offset="1" stop-color="#1D1E21" stop-opacity="0"/></linearGradient><linearGradient id="m" x1="481.5" x2="481.5" y1="156.463" y2="444.463" gradientUnits="userSpaceOnUse"><stop offset=".65" stop-color="#1D1E21"/><stop offset="1" stop-color="#1D1E21" stop-opacity="0"/></linearGradient><linearGradient id="n" x1="541.166" x2="541.166" y1="156.463" y2="444.463" gradientUnits="userSpaceOnUse"><stop offset=".65" stop-color="#1D1E21"/><stop offset="1" stop-color="#1D1E21" stop-opacity="0"/></linearGradient><linearGradient id="s" x1="73.799" x2="73.799" y1="183.738" y2="253.503" gradientUnits="userSpaceOnUse"><stop stop-color="#2AC10B" stop-opacity="0"/><stop offset=".562" stop-color="#2AC10B"/></linearGradient><linearGradient id="y" x1="73.799" x2="73.799" y1="331.738" y2="401.503" gradientUnits="userSpaceOnUse"><stop stop-color="#5C6BF1" stop-opacity="0"/><stop offset=".562" stop-color="#5C6BF1"/></linearGradient><linearGradient id="E" x1="356.799" x2="356.799" y1="405.738" y2="475.503" gradientUnits="userSpaceOnUse"><stop stop-color="#FF1A1A" stop-opacity="0"/><stop offset=".562" stop-color="#FF1A1A"/></linearGradient><linearGradient id="K" x1="270.799" x2="270.799" y1="257.738" y2="327.503" gradientUnits="userSpaceOnUse"><stop stop-color="#FBBC05" stop-opacity="0"/><stop offset=".562" stop-color="#FBBC05"/></linearGradient><linearGradient id="Q" x1="303.5" x2="587" y1="31.463" y2="474.963" gradientUnits="userSpaceOnUse"><stop stop-opacity="0"/><stop offset="1"/></linearGradient><linearGradient id="R" x1="303.5" x2="303.5" y1="414.873" y2="512.578" gradientUnits="userSpaceOnUse"><stop stop-opacity="0"/><stop offset="1"/></linearGradient><filter id="d" width="28.996" height="26.995" x="496.258" y="46.965" color-interpolation-filters="sRGB" filterUnits="userSpaceOnUse"><feFlood flood-opacity="0" result="BackgroundImageFix"/><feColorMatrix in="SourceAlpha" result="hardAlpha" values="0 0 0 0 0 0 0 0 0 0 0 0 0 0 0 0 0 0 127 0"/><feOffset dy="1.5"/><feGaussianBlur stdDeviation="1.5"/><feComposite in2="hardAlpha" operator="out"/><feColorMatrix values="0 0 0 0 0 0 0 0 0 0 0 0 0 0 0 0 0 0 0.04 0"/><feBlend in2="BackgroundImageFix" result="effect1_dropShadow_277_72"/><feColorMatrix in="SourceAlpha" result="hardAlpha" values="0 0 0 0 0 0 0 0 0 0 0 0 0 0 0 0 0 0 127 0"/><feOffset dy=".75"/><feGaussianBlur stdDeviation=".75"/><feComposite in2="hardAlpha" operator="out"/><feColorMatrix values="0 0 0 0 0 0 0 0 0 0 0 0 0 0 0 0 0 0 0.04 0"/><feBlend in2="effect1_dropShadow_277_72" result="effect2_dropShadow_277_72"/><feBlend in="SourceGraphic" in2="effect2_dropShadow_277_72" result="shape"/></filter><filter id="e" width="28.996" height="26.995" x="541.002" y="46.965" color-interpolation-filters="sRGB" filterUnits="userSpaceOnUse"><feFlood flood-opacity="0" result="BackgroundImageFix"/><feColorMatrix in="SourceAlpha" result="hardAlpha" values="0 0 0 0 0 0 0 0 0 0 0 0 0 0 0 0 0 0 127 0"/><feOffset dy="1.5"/><feGaussianBlur stdDeviation="1.5"/><feComposite in2="hardAlpha" operator="out"/><feColorMatrix values="0 0 0 0 0 0 0 0 0 0 0 0 0 0 0 0 0 0 0.04 0"/><feBlend in2="BackgroundImageFix" result="effect1_dropShadow_277_72"/><feColorMatrix in="SourceAlpha" result="hardAlpha" values="0 0 0 0 0 0 0 0 0 0 0 0 0 0 0 0 0 0 127 0"/><feOffset dy=".75"/><feGaussianBlur stdDeviation=".75"/><feComposite in2="hardAlpha" operator="out"/><feColorMatrix values="0 0 0 0 0 0 0 0 0 0 0 0 0 0 0 0 0 0 0.04 0"/><feBlend in2="effect1_dropShadow_277_72" result="effect2_dropShadow_277_72"/><feBlend in="SourceGraphic" in2="effect2_dropShadow_277_72" result="shape"/></filter><filter id="o" width="220" height="91.359" x="45" y="163.283" color-interpolation-filters="sRGB" filterUnits="userSpaceOnUse"><feFlood flood-opacity="0" result="BackgroundImageFix"/><feColorMatrix in="SourceAlpha" result="hardAlpha" values="0 0 0 0 0 0 0 0 0 0 0 0 0 0 0 0 0 0 127 0"/><feOffset dy="10"/><feGaussianBlur stdDeviation="8.5"/><feComposite in2="hardAlpha" operator="out"/><feColorMatrix values="0 0 0 0 0 0 0 0 0 0 0 0 0 0 0 0 0 0 0.25 0"/><feBlend in2="BackgroundImageFix" result="effect1_dropShadow_277_72"/><feBlend in="SourceGraphic" in2="effect1_dropShadow_277_72" result="shape"/></filter><filter id="q" width="2.283" height="31.972" x="72.657" y="183.738" color-interpolation-filters="sRGB" filterUnits="userSpaceOnUse"><feFlood flood-opacity="0" result="BackgroundImageFix"/><feBlend in="SourceGraphic" in2="BackgroundImageFix" result="shape"/><feColorMatrix in="SourceAlpha" result="hardAlpha" values="0 0 0 0 0 0 0 0 0 0 0 0 0 0 0 0 0 0 127 0"/><feOffset dy="1.522"/><feGaussianBlur stdDeviation=".761"/><feComposite in2="hardAlpha" k2="-1" k3="1" operator="arithmetic"/><feColorMatrix values="0 0 0 0 1 0 0 0 0 1 0 0 0 0 1 0 0 0 0.25 0"/><feBlend in2="shape" result="effect1_innerShadow_277_72"/></filter><filter id="u" width="340" height="91.359" x="45" y="311.283" color-interpolation-filters="sRGB" filterUnits="userSpaceOnUse"><feFlood flood-opacity="0" result="BackgroundImageFix"/><feColorMatrix in="SourceAlpha" result="hardAlpha" values="0 0 0 0 0 0 0 0 0 0 0 0 0 0 0 0 0 0 127 0"/><feOffset dy="10"/><feGaussianBlur stdDeviation="8.5"/><feComposite in2="hardAlpha" operator="out"/><feColorMatrix values="0 0 0 0 0 0 0 0 0 0 0 0 0 0 0 0 0 0 0.25 0"/><feBlend in2="BackgroundImageFix" result="effect1_dropShadow_277_72"/><feBlend in="SourceGraphic" in2="effect1_dropShadow_277_72" result="shape"/></filter><filter id="w" width="2.283" height="31.972" x="72.657" y="331.738" color-interpolation-filters="sRGB" filterUnits="userSpaceOnUse"><feFlood flood-opacity="0" result="BackgroundImageFix"/><feBlend in="SourceGraphic" in2="BackgroundImageFix" result="shape"/><feColorMatrix in="SourceAlpha" result="hardAlpha" values="0 0 0 0 0 0 0 0 0 0 0 0 0 0 0 0 0 0 127 0"/><feOffset dy="1.522"/><feGaussianBlur stdDeviation=".761"/><feComposite in2="hardAlpha" k2="-1" k3="1" operator="arithmetic"/><feColorMatrix values="0 0 0 0 1 0 0 0 0 1 0 0 0 0 1 0 0 0 0.25 0"/><feBlend in2="shape" result="effect1_innerShadow_277_72"/></filter><filter id="A" width="243" height="91.359" x="328" y="385.283" color-interpolation-filters="sRGB" filterUnits="userSpaceOnUse"><feFlood flood-opacity="0" result="BackgroundImageFix"/><feColorMatrix in="SourceAlpha" result="hardAlpha" values="0 0 0 0 0 0 0 0 0 0 0 0 0 0 0 0 0 0 127 0"/><feOffset dy="10"/><feGaussianBlur stdDeviation="8.5"/><feComposite in2="hardAlpha" operator="out"/><feColorMatrix values="0 0 0 0 0 0 0 0 0 0 0 0 0 0 0 0 0 0 0.25 0"/><feBlend in2="BackgroundImageFix" result="effect1_dropShadow_277_72"/><feBlend in="SourceGraphic" in2="effect1_dropShadow_277_72" result="shape"/></filter><filter id="C" width="2.283" height="31.972" x="355.657" y="405.738" color-interpolation-filters="sRGB" filterUnits="userSpaceOnUse"><feFlood flood-opacity="0" result="BackgroundImageFix"/><feBlend in="SourceGraphic" in2="BackgroundImageFix" result="shape"/><feColorMatrix in="SourceAlpha" result="hardAlpha" values="0 0 0 0 0 0 0 0 0 0 0 0 0 0 0 0 0 0 127 0"/><feOffset dy="1.522"/><feGaussianBlur stdDeviation=".761"/><feComposite in2="hardAlpha" k2="-1" k3="1" operator="arithmetic"/><feColorMatrix values="0 0 0 0 1 0 0 0 0 1 0 0 0 0 1 0 0 0 0.25 0"/><feBlend in2="shape" result="effect1_innerShadow_277_72"/></filter><filter id="G" width="310" height="91.359" x="242" y="237.283" color-interpolation-filters="sRGB" filterUnits="userSpaceOnUse"><feFlood flood-opacity="0" result="BackgroundImageFix"/><feColorMatrix in="SourceAlpha" result="hardAlpha" values="0 0 0 0 0 0 0 0 0 0 0 0 0 0 0 0 0 0 127 0"/><feOffset dy="10"/><feGaussianBlur stdDeviation="8.5"/><feComposite in2="hardAlpha" operator="out"/><feColorMatrix values="0 0 0 0 0 0 0 0 0 0 0 0 0 0 0 0 0 0 0.25 0"/><feBlend in2="BackgroundImageFix" result="effect1_dropShadow_277_72"/><feBlend in="SourceGraphic" in2="effect1_dropShadow_277_72" result="shape"/></filter><filter id="I" width="2.283" height="31.972" x="269.657" y="257.738" color-interpolation-filters="sRGB" filterUnits="userSpaceOnUse"><feFlood flood-opacity="0" result="BackgroundImageFix"/><feBlend in="SourceGraphic" in2="BackgroundImageFix" result="shape"/><feColorMatrix in="SourceAlpha" result="hardAlpha" values="0 0 0 0 0 0 0 0 0 0 0 0 0 0 0 0 0 0 127 0"/><feOffset dy="1.522"/><feGaussianBlur stdDeviation=".761"/><feComposite in2="hardAlpha" k2="-1" k3="1" operator="arithmetic"/><feColorMatrix values="0 0 0 0 1 0 0 0 0 1 0 0 0 0 1 0 0 0 0.25 0"/><feBlend in2="shape" result="effect1_innerShadow_277_72"/></filter><clipPath id="b"><rect width="567" height="443" x="20" y="31.463" fill="#fff" rx="12"/></clipPath><clipPath id="r"><rect width="2.284" height="30.449" x="72.657" y="183.738" fill="#fff" rx="1.142"/></clipPath><clipPath id="t"><path fill="#fff" d="M225.468 192.873h7.308v12.18h-7.308z"/></clipPath><clipPath id="x"><rect width="2.284" height="30.449" x="72.657" y="331.738" fill="#fff" rx="1.142"/></clipPath><clipPath id="z"><path fill="#fff" d="M345.468 340.873h7.308v12.18h-7.308z"/></clipPath><clipPath id="D"><rect width="2.284" height="30.449" x="355.657" y="405.738" fill="#fff" rx="1.142"/></clipPath><clipPath id="F"><path fill="#fff" d="M531.468 414.873h7.308v12.18h-7.308z"/></clipPath><clipPath id="J"><rect width="2.284" height="30.449" x="269.657" y="257.738" fill="#fff" rx="1.142"/></clipPath><clipPath id="L"><path fill="#fff" d="M512.468 266.873h7.308v12.18h-7.308z"/></clipPath></defs></svg>